<?xml version="1.0" encoding="UTF-8"?>
<svg width="1102px" height="812px" viewBox="0 0 1102 812" version="1.1" xmlns="http://www.w3.org/2000/svg" xmlns:xlink="http://www.w3.org/1999/xlink">
    <title>500-error</title>
    <g id="Page-1" stroke="none" stroke-width="1" fill="none" fill-rule="evenodd">
        <g id="500-error" transform="translate(0.991079, 0.004292)" fill-rule="nonzero">
            <path d="M11.8489211,389.015708 C29.2189211,456.145708 65.9589211,514.175708 124.018921,542.305708 C244.718921,600.765708 516.928921,570.615708 720.088921,536.005708 C825.178921,518.105708 917.548921,468.705708 984.648921,399.185708 L11.8489211,389.015708 Z" id="Path" fill="#6C63FF" opacity="0.1"></path>
            <path d="M1077.20892,73.0257077 L965.738921,73.0257077 C960.448921,73.0257077 956.108921,69.1057077 956.108921,64.3157077 C956.108921,59.5257077 960.448921,55.5957077 965.738921,55.5957077 L985.018921,55.5957077 C979.718921,55.5957077 975.388921,51.6757077 975.388921,46.8757077 C975.388921,42.0757077 979.718921,38.1657077 985.018921,38.1657077 L971.258921,38.1657077 C965.958921,38.1657077 961.618921,34.2457077 961.618921,29.4457077 C961.618921,24.6457077 965.958921,20.7357077 971.258921,20.7357077 L1029.43892,20.7357077 C1016.52892,15.3057077 1001.43892,11.4457077 984.048921,9.41570765 C825.398921,-9.01429235 768.758921,3.17570765 748.778921,15.7057077 C723.874834,31.5181657 696.211013,42.4900565 667.238921,48.0457077 C569.358921,66.3157077 386.308921,88.2957077 220.398921,41.0457077 C137.938921,17.5157077 76.6489211,57.2257077 39.9189211,123.605708 L1096.56892,123.605708 C1095.18892,104.315708 1091.05892,86.4957077 1083.47892,70.9057077 C1081.68377,72.2917244 1079.47684,73.0379271 1077.20892,73.0257077 L1077.20892,73.0257077 Z" id="Path" fill="#6C63FF" opacity="0.1"></path>
            <path d="M2.39892111,248.895708 C-1.88262125,287.937397 -0.427198292,327.39553 6.71892111,366.015708 L985.398921,398.405708 C1012.3393,370.464401 1035.2288,338.883627 1053.39892,304.585708 L2.39892111,248.895708 Z M389.478921,332.445708 L370.208921,332.445708 C375.508921,332.445708 379.848921,336.375708 379.848921,341.165708 C379.848921,345.955708 375.508921,349.875708 370.208921,349.875708 L258.738921,349.875708 C253.448921,349.875708 249.108921,345.955708 249.108921,341.165708 C249.108921,336.375708 253.448921,332.445708 258.738921,332.445708 L278.018921,332.445708 C272.718921,332.445708 268.388921,328.525708 268.388921,323.735708 C268.388921,318.945708 272.718921,315.015708 278.018921,315.015708 L264.248921,315.015708 C258.948921,315.015708 254.608921,311.095708 254.608921,306.305708 C254.608921,301.515708 258.948921,297.585708 264.248921,297.585708 L375.718921,297.585708 C381.018921,297.585708 385.348921,301.505708 385.348921,306.305708 C385.348921,311.105708 381.018921,315.015708 375.718921,315.015708 L389.478921,315.015708 C394.778921,315.015708 399.108921,318.935708 399.108921,323.735708 C399.108921,328.535708 394.778921,332.445708 389.478921,332.445708 Z" id="Shape" fill="#6C63FF" opacity="0.1"></path>
            <path d="M1096.60892,124.205708 L28.1289211,147.705708 C15.1289211,177.935708 6.50892111,212.115708 2.53892111,247.535708 L1077.88892,247.535708 C1084.88726,226.812882 1090.07995,205.523531 1093.40892,183.905708 C1096.61892,163.095708 1097.89892,142.965708 1096.60892,124.205708 Z M219.478921,201.255708 L200.208921,201.255708 C205.508921,201.255708 209.848921,205.185708 209.848921,209.975708 C209.848921,214.765708 205.508921,218.695708 200.208921,218.695708 L88.7389211,218.695708 C83.4489211,218.695708 79.1089211,214.765708 79.1089211,209.975708 C79.1089211,205.185708 83.4489211,201.255708 88.7389211,201.255708 L108.018921,201.255708 C102.718921,201.255708 98.3889211,197.335708 98.3889211,192.545708 C98.3889211,187.755708 102.718921,183.825708 108.018921,183.825708 L94.2489211,183.825708 C88.9489211,183.825708 84.6089211,179.905708 84.6089211,175.115708 C84.6089211,170.325708 88.9489211,166.395708 94.2489211,166.395708 L205.718921,166.395708 C211.018921,166.395708 215.348921,170.315708 215.348921,175.115708 C215.348921,179.915708 211.018921,183.825708 205.718921,183.825708 L219.478921,183.825708 C224.778921,183.825708 229.108921,187.755708 229.108921,192.545708 C229.108921,197.335708 224.778921,201.255708 219.478921,201.255708 Z" id="Shape" fill="#6C63FF" opacity="0.1"></path>
            <ellipse id="Oval" fill="#6C63FF" opacity="0.1" cx="545.088921" cy="739.955708" rx="446.98" ry="41.12"></ellipse>
            <path d="M854.708921,757.945708 C851.798921,758.055708 835.258921,757.945708 835.258921,757.945708 C835.016879,757.692501 834.789827,757.42538 834.578921,757.145708 C838.808921,755.705708 847.948921,753.545708 854.708921,757.945708 Z" id="Path" fill="#000000" opacity="0.1"></path>
            <path d="M902.018921,757.945708 C899.108921,758.055708 882.568921,757.945708 882.568921,757.945708 C882.326879,757.692501 882.099827,757.42538 881.888921,757.145708 C886.098921,755.705708 895.238921,753.545708 902.018921,757.945708 Z" id="Path" fill="#000000" opacity="0.1"></path>
            <path d="M841.418921,450.935708 C841.348921,451.285708 840.138921,456.605708 838.298921,464.815708 C839.018921,457.805708 840.018921,452.775708 841.418921,450.935708 Z" id="Path" fill="#000000" opacity="0.1"></path>
            <path d="M828.828921,344.895708 L828.828921,344.895708 L827.538921,346.895708 L824.248921,345.145708 L825.978921,342.485708 C827.122967,343.026549 828.105527,343.857416 828.828921,344.895708 L828.828921,344.895708 Z" id="Path" fill="#000000" opacity="0.1"></path>
            <ellipse id="Oval" fill="#575A89" cx="812.358921" cy="423.735708" rx="9" ry="6.1"></ellipse>
            <circle id="Oval" fill="#6C63FF" cx="518.998921" cy="454.785708" r="308.5"></circle>
            <path d="M680.868921,609.815708 C680.868921,658.515708 604.308921,613.975708 522.228921,613.975708 C440.148921,613.975708 357.128921,656.675708 357.128921,607.975708 C357.128921,580.205708 383.588921,541.585708 421.548921,513.535708 L421.548921,513.535708 C450.148921,492.395708 485.268921,477.255708 520.548921,477.255708 C556.828921,477.255708 592.368921,493.645708 620.718921,516.145708 C656.498921,544.515708 680.868921,582.635708 680.868921,609.815708 Z" id="Path" fill="#444053"></path>
            <path d="M620.708921,516.125708 C577.078921,509.555708 498.168921,501.545708 421.548921,513.515708 C450.148921,492.375708 485.268921,477.235708 520.548921,477.235708 C556.818921,477.235708 592.358921,493.625708 620.708921,516.125708 Z" id="Path" fill="#F6F8FB"></path>
            <path d="M357.128921,237.015708 C357.128921,237.015708 264.198921,296.425708 264.958921,389.355708 C265.718921,482.285708 357.128921,237.015708 357.128921,237.015708 Z" id="Path" fill="#000000" opacity="0.05"></path>
            <path d="M827.378921,69.2257077 C827.378921,69.2257077 743.178921,64.1557077 753.108921,123.155708 C753.108921,123.155708 751.108921,133.575708 760.588921,138.315708 C760.588921,138.315708 760.738921,133.945708 769.218921,135.425708 C772.241046,135.931311 775.312227,136.078996 778.368921,135.865708 C782.4994,135.584872 786.42512,133.962615 789.548921,131.245708 L789.548921,131.245708 C789.548921,131.245708 813.218921,121.475708 822.428921,82.7857077 C822.428921,82.7857077 829.238921,74.3457077 828.968921,72.1857077 L814.758921,78.2457077 C814.758921,78.2457077 819.608921,88.4957077 815.758921,97.0157077 C815.758921,97.0157077 815.298921,78.6257077 812.568921,79.0157077 C812.018921,79.1057077 805.188921,82.5657077 805.188921,82.5657077 C805.188921,82.5657077 813.538921,100.425708 807.188921,113.395708 C807.188921,113.395708 809.578921,91.3957077 802.528921,83.8557077 L792.528921,89.6957077 C792.528921,89.6957077 802.288921,108.135708 795.668921,123.185708 C795.668921,123.185708 797.368921,100.105708 790.428921,91.1157077 L781.358921,98.1857077 C781.358921,98.1857077 790.528921,116.365708 784.938921,128.845708 C784.938921,128.845708 784.208921,101.975708 779.398921,99.9457077 C779.398921,99.9457077 771.468921,106.945708 770.258921,109.815708 C770.258921,109.815708 776.538921,123.005708 772.648921,129.965708 C772.648921,129.965708 770.258921,112.065708 768.298921,111.965708 C768.298921,111.965708 760.398921,123.825708 759.568921,131.965708 C759.568921,131.965708 759.918921,119.865708 766.378921,110.835708 C766.378921,110.835708 758.738921,112.145708 754.288921,117.105708 C754.288921,117.105708 755.518921,108.715708 768.288921,107.985708 C768.288921,107.985708 774.818921,98.9857077 776.568921,98.4457077 C776.568921,98.4457077 763.818921,97.3757077 756.088921,100.805708 C756.088921,100.805708 762.888921,92.8957077 778.898921,96.4857077 L787.898921,89.1857077 C787.898921,89.1857077 771.118921,86.8857077 763.998921,89.4257077 C763.998921,89.4257077 772.188921,82.4257077 790.308921,87.5257077 L800.058921,81.6957077 C800.058921,81.6957077 785.748921,78.6157077 777.218921,79.6957077 C777.218921,79.6957077 786.218921,74.8457077 802.908921,80.1057077 L809.908921,76.9757077 C809.908921,76.9757077 799.418921,74.9157077 796.348921,74.5957077 C793.278921,74.2757077 793.118921,73.4157077 793.118921,73.4157077 C799.780649,72.3325761 806.612384,73.1255143 812.848921,75.7057077 C812.848921,75.7057077 827.628921,70.1557077 827.378921,69.2257077 Z" id="Path" fill="#6C63FF"></path>
            <path d="M741.018921,42.9957077 C741.018921,42.9957077 703.018921,40.6957077 707.458921,67.3557077 C707.458921,67.3557077 706.568921,72.0657077 710.838921,74.2057077 C710.838921,74.2057077 710.898921,72.2057077 714.738921,72.9057077 C716.103391,73.1302682 717.489138,73.1973746 718.868921,73.1057077 C720.736714,72.9724077 722.511487,72.2393494 723.928921,71.0157077 L723.928921,71.0157077 C723.928921,71.0157077 734.618921,66.5957077 738.778921,49.1157077 C738.778921,49.1157077 741.858921,45.3057077 741.778921,44.3257077 L735.358921,47.0657077 C735.358921,47.0657077 737.558921,51.6957077 735.828921,55.5457077 C735.828921,55.5457077 735.618921,47.2357077 734.388921,47.4357077 C734.138921,47.4357077 731.048921,49.0357077 731.048921,49.0357077 C731.048921,49.0357077 734.828921,57.1057077 731.978921,62.9657077 C731.978921,62.9657077 733.058921,53.0257077 729.878921,49.6157077 L725.358921,52.2557077 C725.358921,52.2557077 729.768921,60.5957077 726.778921,67.3957077 C726.778921,67.3957077 727.538921,56.9657077 724.408921,52.9057077 L720.308921,56.0957077 C720.308921,56.0957077 724.448921,64.3057077 721.928921,69.9457077 C721.928921,69.9457077 721.598921,57.8057077 719.418921,56.8857077 C719.418921,56.8857077 715.838921,60.0457077 715.288921,61.3457077 C715.288921,61.3457077 718.128921,67.3457077 716.368921,70.4557077 C716.368921,70.4557077 715.288921,62.3657077 714.368921,62.3357077 C714.368921,62.3357077 710.798921,67.6857077 710.428921,71.3357077 C710.601017,67.9389554 711.659444,64.6464535 713.498921,61.7857077 C711.441396,62.1749846 709.543123,63.1588877 708.038921,64.6157077 C708.038921,64.6157077 708.588921,60.8257077 714.378921,60.4957077 C714.378921,60.4957077 717.328921,56.4357077 718.118921,56.1857077 C718.118921,56.1857077 712.358921,55.7057077 708.868921,57.2557077 C708.868921,57.2557077 711.938921,53.6757077 719.178921,55.2557077 L723.178921,51.9657077 C723.178921,51.9657077 715.598921,50.9657077 712.378921,52.0657077 C712.378921,52.0657077 716.078921,48.9057077 724.268921,51.2157077 L728.668921,48.5757077 C728.668921,48.5757077 722.208921,47.1857077 718.348921,47.6857077 C718.348921,47.6857077 722.418921,45.4957077 729.958921,47.8757077 L733.108921,46.4557077 C733.108921,46.4557077 728.368921,45.5257077 726.988921,45.3857077 C725.608921,45.2457077 725.518921,44.8557077 725.518921,44.8557077 C728.520895,44.3563192 731.602623,44.7025808 734.418921,45.8557077 C734.418921,45.8557077 741.128921,43.4157077 741.018921,42.9957077 Z" id="Path" fill="#6C63FF"></path>
            <ellipse id="Oval" fill="#6C63FF" opacity="0.1" cx="1073.09892" cy="725.455708" rx="26.93" ry="4.55"></ellipse>
            <ellipse id="Oval" fill="#6C63FF" opacity="0.1" cx="46.7789211" cy="801.145708" rx="26.93" ry="4.55"></ellipse>
            <ellipse id="Oval" fill="#6C63FF" opacity="0.1" cx="203.108921" cy="806.855708" rx="26.93" ry="4.55"></ellipse>
            <ellipse id="Oval" fill="#6C63FF" cx="1014.15892" cy="774.215708" rx="40.21" ry="6.8"></ellipse>
            <path d="M1030.77892,763.105708 C1032.61423,761.607756 1033.95297,759.589194 1034.61892,757.315708 C1035.10892,755.025708 1034.12892,752.265708 1031.93892,751.425708 C1029.47892,750.485708 1026.84892,752.195708 1024.85892,753.915708 C1022.86892,755.635708 1020.57892,757.595708 1017.96892,757.235708 C1020.69938,754.763312 1021.92976,751.037981 1021.20892,747.425708 C1021.09513,746.689971 1020.78411,745.998815 1020.30892,745.425708 C1018.93892,743.965708 1016.46892,744.585708 1014.82892,745.735708 C1009.62892,749.395708 1008.17892,756.455708 1008.14892,762.815708 C1007.62892,760.525708 1008.06892,758.135708 1008.05892,755.815708 C1008.04892,753.495708 1007.39892,750.815708 1005.41892,749.585708 C1004.19017,748.929465 1002.81135,748.605443 1001.41892,748.645708 C999.078921,748.555708 996.478921,748.785708 994.878921,750.495708 C992.878921,752.625708 993.408921,756.185708 995.138921,758.495708 C996.868921,760.805708 999.488921,762.305708 1001.89892,763.915708 C1003.83845,765.068782 1005.49286,766.644567 1006.73892,768.525708 C1006.88463,768.790502 1007.00515,769.068387 1007.09892,769.355708 L1021.74892,769.355708 C1025.02702,767.689156 1028.06457,765.586754 1030.77892,763.105708 L1030.77892,763.105708 Z" id="Path" fill="#6C63FF"></path>
            <path d="M59.3489211,679.255708 C59.3489211,679.255708 64.8389211,686.435708 56.8089211,697.255708 C48.7789211,708.075708 42.1589211,717.255708 44.8089211,724.015708 C44.8089211,724.015708 56.9189211,703.875708 66.8089211,703.585708 C76.6989211,703.295708 70.1889211,691.365708 59.3489211,679.255708 Z" id="Path" fill="#6C63FF"></path>
            <path d="M59.3489211,679.255708 C59.825655,679.949631 60.2026636,680.707014 60.4689211,681.505708 C70.0889211,692.805708 75.2089211,703.355708 65.9689211,703.615708 C57.3489211,703.865708 46.9689211,719.265708 44.5389211,723.155708 C44.6238676,723.457238 44.7239953,723.754283 44.8389211,724.045708 C44.8389211,724.045708 56.9489211,703.905708 66.8389211,703.615708 C76.7289211,703.325708 70.1889211,691.365708 59.3489211,679.255708 Z" id="Path" fill="#000000" opacity="0.1"></path>
            <path d="M69.5589211,688.405708 C69.5589211,690.935708 69.2689211,692.985708 68.9189211,692.985708 C68.5689211,692.985708 68.2889211,690.985708 68.2889211,688.405708 C68.2889211,685.825708 68.6389211,687.065708 68.9989211,687.065708 C69.3589211,687.065708 69.5589211,685.875708 69.5589211,688.405708 Z" id="Path" fill="#FFD037"></path>
            <path d="M73.0189211,691.425708 C70.7989211,692.635708 68.8689211,693.365708 68.6989211,693.055708 C68.5289211,692.745708 70.1989211,691.525708 72.4189211,690.315708 C74.6389211,689.105708 73.7589211,689.985708 73.9289211,690.315708 C74.0989211,690.645708 75.2789211,690.215708 73.0189211,691.425708 Z" id="Path" fill="#FFD037"></path>
            <path d="M30.3289211,679.255708 C30.3289211,679.255708 24.8389211,686.435708 32.8589211,697.255708 C40.8789211,708.075708 47.5089211,717.255708 44.8589211,724.015708 C44.8589211,724.015708 32.7389211,703.875708 22.8589211,703.585708 C12.9789211,703.295708 19.4789211,691.365708 30.3289211,679.255708 Z" id="Path" fill="#6C63FF"></path>
            <path d="M30.3289211,679.255708 C29.8477904,679.947034 29.4704564,680.705071 29.2089211,681.505708 C19.5889211,692.805708 14.4589211,703.355708 23.7089211,703.615708 C32.3189211,703.865708 42.7089211,719.265708 45.1289211,723.155708 C45.047353,723.457083 44.9505622,723.754131 44.8389211,724.045708 C44.8389211,724.045708 32.7189211,703.905708 22.8389211,703.615708 C12.9589211,703.325708 19.4789211,691.365708 30.3289211,679.255708 Z" id="Path" fill="#000000" opacity="0.1"></path>
            <path d="M20.1189211,688.405708 C20.1189211,690.935708 20.3989211,692.985708 20.7489211,692.985708 C21.0989211,692.985708 21.3789211,690.985708 21.3789211,688.405708 C21.3789211,685.825708 21.0289211,687.065708 20.6789211,687.065708 C20.3289211,687.065708 20.1189211,685.875708 20.1189211,688.405708 Z" id="Path" fill="#FFD037"></path>
            <path d="M16.6089211,691.425708 C18.8289211,692.635708 20.7689211,693.365708 20.9389211,693.055708 C21.1089211,692.745708 19.4389211,691.525708 17.2189211,690.315708 C14.9989211,689.105708 15.8689211,689.985708 15.7089211,690.315708 C15.5489211,690.645708 14.3889211,690.215708 16.6089211,691.425708 Z" id="Path" fill="#FFD037"></path>
            <path d="M21.8689211,723.105708 C21.8689211,723.105708 37.2289211,722.635708 41.8689211,719.335708 C46.5089211,716.035708 65.4989211,712.105708 66.6489211,717.335708 C67.7989211,722.565708 89.7289211,743.635708 72.3889211,743.775708 C55.0489211,743.915708 32.0989211,741.065708 27.4789211,738.255708 C22.8589211,735.445708 21.8689211,723.105708 21.8689211,723.105708 Z" id="Path" fill="#A8A8A8"></path>
            <path d="M72.6789211,741.985708 C55.3389211,742.125708 32.3889211,739.275708 27.7689211,736.465708 C24.2489211,734.325708 22.8489211,726.635708 22.3789211,723.085708 L21.8689211,723.085708 C21.8689211,723.085708 22.8689211,735.475708 27.4589211,738.285708 C32.0489211,741.095708 55.0289211,743.945708 72.3689211,743.805708 C77.3689211,743.805708 79.0989211,741.975708 79.0089211,739.345708 C78.3089211,740.955708 76.4089211,741.955708 72.6789211,741.985708 Z" id="Path" fill="#000000" opacity="0.2"></path>
            <path d="M409.318921,414.335708 C415.188921,414.005708 442.818921,411.925708 460.368921,401.915708 C463.187511,400.257487 466.371481,399.319813 469.638921,399.185708 C475.218921,399.025708 481.638921,401.355708 477.528921,414.395708 C470.868921,435.725708 432.198921,459.725708 408.198921,458.395708 C385.118921,457.115708 357.738921,447.815708 339.658921,415.115708 C337.92663,411.969691 337.07343,408.415264 337.188921,404.825708 C337.398921,398.225708 339.798921,389.955708 352.188921,399.175708 C368.928921,411.625708 400.688921,413.985708 407.058921,414.335708 C407.811714,414.376062 408.566128,414.376062 409.318921,414.335708 L409.318921,414.335708 Z" id="Path" fill="#444053"></path>
            <path d="M631.318921,414.335708 C637.188921,414.005708 664.818921,411.925708 682.368921,401.915708 C685.187511,400.257487 688.371481,399.319813 691.638921,399.185708 C697.218921,399.025708 703.638921,401.355708 699.528921,414.395708 C692.868921,435.725708 654.198921,459.725708 630.198921,458.395708 C607.118921,457.115708 579.738921,447.815708 561.658921,415.115708 C559.92663,411.969691 559.07343,408.415264 559.188921,404.825708 C559.398921,398.225708 561.798921,389.955708 574.188921,399.175708 C590.928921,411.625708 622.688921,413.985708 629.058921,414.335708 C629.811714,414.376062 630.566128,414.376062 631.318921,414.335708 L631.318921,414.335708 Z" id="Path" fill="#444053"></path>
        </g>
    </g>
</svg>