<svg width="1100" height="558" viewBox="0 0 1100 558" fill="none"
    xmlns="http://www.w3.org/2000/svg">
    <g id="kubernetes_attack_surface">
        <g id="data_plane">
            <g id="Rectangle" filter="url(#filter0_di_11_130)">
                <rect x="460" y="10" width="630" height="540" rx="5" fill="#E6F7FF" fill-opacity="0.5" shape-rendering="crispEdges"/>
                <rect x="460.25" y="10.25" width="629.5" height="539.5" rx="4.75" stroke="#B3B3B3" stroke-width="0.5" shape-rendering="crispEdges"/>
            </g>
            <path id="TITLE" d="M709.775 53.8H702.479V70.6H709.775C714.719 70.6 717.815 67.048 717.815 62.2C717.815 57.256 714.671 53.8 709.775 53.8ZM709.703 67.624H705.743V56.752H709.703C712.583 56.752 714.503 58.936 714.503 62.128C714.503 65.368 712.583 67.624 709.703 67.624ZM731.617 70.6H735.049L728.593 53.8H724.321L717.889 70.6H721.297L722.689 66.952H730.249L731.617 70.6ZM723.769 64.048L726.457 56.944L729.145 64.048H723.769ZM747.954 53.8H733.386V56.776H739.026V70.6H742.314V56.776H747.954V53.8ZM760.279 70.6H763.711L757.255 53.8H752.983L746.551 70.6H749.959L751.351 66.952H758.911L760.279 70.6ZM752.431 64.048L755.119 56.944L757.807 64.048H752.431ZM779.017 53.8H771.145V70.6H774.409V65.464H778.873C782.737 65.464 784.849 62.464 784.849 59.632C784.849 56.848 782.713 53.8 779.017 53.8ZM778.777 62.536H774.409V56.776H778.921C780.529 56.776 781.657 58.168 781.657 59.656C781.657 61.12 780.553 62.536 778.777 62.536ZM790.135 67.576V53.8H786.847V70.6H798.511V67.576H790.135ZM813.079 70.6H816.511L810.055 53.8H805.783L799.351 70.6H802.759L804.151 66.952H811.711L813.079 70.6ZM805.231 64.048L807.919 56.944L810.607 64.048H805.231ZM829.247 53.8V64.696L820.799 53.8H818.087V70.6H821.375V59.68L829.823 70.6H832.535V53.8H829.247ZM848.001 56.776V53.8H835.617V70.6H847.977V67.624H838.833V63.496H846.777V60.616H838.833V56.776H848.001Z" fill="#343536"/>
        </g>
        <g id="node_02">
            <g id="worker_node">
                <g id="Rectangle_2" filter="url(#filter1_di_11_130)">
                    <rect x="550" y="100" width="180" height="358" rx="5" fill="white"/>
                    <rect x="550.25" y="100.25" width="179.5" height="357.5" rx="4.75" stroke="#B3B3B3" stroke-width="0.5"/>
                </g>
                <path id="TITLE_2" d="M598.495 112.2L596.479 119.298L594.435 112.2H592.713L590.669 119.298L588.653 112.2H586.637L589.619 122H591.649L593.581 115.42L595.513 122H597.543L600.511 112.2H598.495ZM605.853 122.196C608.807 122.196 610.991 119.984 610.991 117.086C610.991 114.202 608.807 112.004 605.853 112.004C602.885 112.004 600.701 114.202 600.701 117.086C600.701 119.984 602.885 122.196 605.853 122.196ZM605.853 120.418C603.907 120.418 602.647 118.962 602.647 117.086C602.647 115.252 603.907 113.782 605.853 113.782C607.785 113.782 609.059 115.252 609.059 117.086C609.059 118.962 607.785 120.418 605.853 120.418ZM618.588 122H620.8L618.364 118.374C619.75 117.898 620.506 116.68 620.506 115.392C620.506 113.838 619.274 112.2 617.146 112.2H612.372V122H614.276V118.57H616.362L618.588 122ZM614.276 113.922H617.09C618 113.922 618.644 114.608 618.644 115.392C618.644 116.204 618.014 116.89 617.02 116.89H614.276V113.922ZM628.532 122H630.87L626.698 116.484L630.562 112.2H628.126L623.996 116.946V112.2H622.078V122H623.996V119.494L625.438 117.898L628.532 122ZM639.118 113.936V112.2H631.894V122H639.104V120.264H633.77V117.856H638.404V116.176H633.77V113.936H639.118ZM646.846 122H649.058L646.622 118.374C648.008 117.898 648.764 116.68 648.764 115.392C648.764 113.838 647.532 112.2 645.404 112.2H640.63V122H642.534V118.57H644.62L646.846 122ZM642.534 113.922H645.348C646.258 113.922 646.902 114.608 646.902 115.392C646.902 116.204 646.272 116.89 645.278 116.89H642.534V113.922ZM660.263 112.2V118.556L655.335 112.2H653.753V122H655.671V115.63L660.599 122H662.181V112.2H660.263ZM668.725 122.196C671.679 122.196 673.863 119.984 673.863 117.086C673.863 114.202 671.679 112.004 668.725 112.004C665.757 112.004 663.573 114.202 663.573 117.086C663.573 119.984 665.757 122.196 668.725 122.196ZM668.725 120.418C666.779 120.418 665.519 118.962 665.519 117.086C665.519 115.252 666.779 113.782 668.725 113.782C670.657 113.782 671.931 115.252 671.931 117.086C671.931 118.962 670.657 120.418 668.725 120.418ZM679.5 112.2H675.244V122H679.5C682.384 122 684.19 119.928 684.19 117.1C684.19 114.216 682.356 112.2 679.5 112.2ZM679.458 120.264H677.148V113.922H679.458C681.138 113.922 682.258 115.196 682.258 117.058C682.258 118.948 681.138 120.264 679.458 120.264ZM692.804 113.936V112.2H685.58V122H692.79V120.264H687.456V117.856H692.09V116.176H687.456V113.936H692.804Z" fill="#343536"/>
            </g>
            <g id="kubelet">
                <g id="Rectangle_3" filter="url(#filter2_di_11_130)">
                    <rect x="568" y="136" width="144" height="36" rx="5" fill="white"/>
                    <rect x="568.25" y="136.25" width="143.5" height="35.5" rx="4.75" stroke="#B3B3B3" stroke-width="0.5"/>
                </g>
                <path id="TITLE_3" d="M615.654 158H617.992L613.82 152.484L617.684 148.2H615.248L611.118 152.946V148.2H609.2V158H611.118V155.494L612.56 153.898L615.654 158ZM624.923 148.2V153.954C624.923 155.396 624.153 156.432 622.613 156.432C621.087 156.432 620.317 155.396 620.317 153.954V148.2H618.371V153.982C618.371 156.474 619.869 158.196 622.613 158.196C625.343 158.196 626.855 156.474 626.855 153.982V148.2H624.923ZM635.25 152.862C636.006 152.456 636.468 151.756 636.468 150.818C636.454 149.264 635.152 148.2 633.234 148.2H628.558V158H633.5C635.586 158 636.832 156.908 636.832 155.228C636.832 154.122 636.216 153.296 635.25 152.862ZM633.22 149.852C634.032 149.838 634.578 150.356 634.578 151.042C634.592 151.714 634.06 152.274 633.262 152.274H630.434V149.852H633.22ZM633.486 156.334H630.434V153.786H633.5C634.41 153.786 634.928 154.346 634.928 155.046C634.928 155.76 634.396 156.334 633.486 156.334ZM645.447 149.936V148.2H638.223V158H645.433V156.264H640.099V153.856H644.733V152.176H640.099V149.936H645.447ZM648.877 156.236V148.2H646.959V158H653.763V156.236H648.877ZM662.194 149.936V148.2H654.97V158H662.18V156.264H656.846V153.856H661.48V152.176H656.846V149.936H662.194ZM671.504 148.2H663.006V149.936H666.296V158H668.214V149.936H671.504V148.2Z" fill="#343536"/>
            </g>
            <g id="pod">
                <g id="Rectangle_4" filter="url(#filter3_di_11_130)">
                    <rect x="568" y="208" width="144" height="234" rx="5" fill="white"/>
                    <rect x="568.25" y="208.25" width="143.5" height="233.5" rx="4.75" stroke="#B3B3B3" stroke-width="0.5"/>
                </g>
                <path id="TITLE_4" d="M630.108 220.2H625.516V230H627.42V227.004H630.024C632.278 227.004 633.51 225.254 633.51 223.602C633.51 221.978 632.264 220.2 630.108 220.2ZM629.968 225.296H627.42V221.936H630.052C630.99 221.936 631.648 222.748 631.648 223.616C631.648 224.47 631.004 225.296 629.968 225.296ZM639.422 230.196C642.376 230.196 644.56 227.984 644.56 225.086C644.56 222.202 642.376 220.004 639.422 220.004C636.454 220.004 634.27 222.202 634.27 225.086C634.27 227.984 636.454 230.196 639.422 230.196ZM639.422 228.418C637.476 228.418 636.216 226.962 636.216 225.086C636.216 223.252 637.476 221.782 639.422 221.782C641.354 221.782 642.628 223.252 642.628 225.086C642.628 226.962 641.354 228.418 639.422 228.418ZM650.197 220.2H645.941V230H650.197C653.081 230 654.887 227.928 654.887 225.1C654.887 222.216 653.053 220.2 650.197 220.2ZM650.155 228.264H647.845V221.922H650.155C651.835 221.922 652.955 223.196 652.955 225.058C652.955 226.948 651.835 228.264 650.155 228.264Z" fill="#343536"/>
            </g>
            <g id="container">
                <g id="Rectangle_5" filter="url(#filter4_di_11_130)">
                    <rect x="586" y="244" width="108" height="108" rx="5" fill="white"/>
                    <rect x="586.25" y="244.25" width="107.5" height="107.5" rx="4.75" stroke="#B3B3B3" stroke-width="0.5"/>
                </g>
                <path id="TITLE_5" d="M604.363 266.196C606.953 266.196 608.605 264.614 609.053 263.046L607.191 262.57C606.869 263.536 605.819 264.39 604.335 264.39C602.403 264.39 601.171 262.836 601.171 261.072C601.171 259.308 602.403 257.81 604.335 257.81C605.819 257.81 606.869 258.692 607.191 259.644L609.067 259.182C608.619 257.628 606.967 256.004 604.321 256.004C601.409 256.004 599.211 258.202 599.211 261.086C599.211 263.984 601.409 266.196 604.363 266.196ZM615.122 266.196C618.076 266.196 620.26 263.984 620.26 261.086C620.26 258.202 618.076 256.004 615.122 256.004C612.154 256.004 609.97 258.202 609.97 261.086C609.97 263.984 612.154 266.196 615.122 266.196ZM615.122 264.418C613.176 264.418 611.916 262.962 611.916 261.086C611.916 259.252 613.176 257.782 615.122 257.782C617.054 257.782 618.328 259.252 618.328 261.086C618.328 262.962 617.054 264.418 615.122 264.418ZM628.151 256.2V262.556L623.223 256.2H621.641V266H623.559V259.63L628.487 266H630.069V256.2H628.151ZM639.665 256.2H631.167V257.936H634.457V266H636.375V257.936H639.665V256.2ZM646.854 266H648.856L645.09 256.2H642.598L638.846 266H640.834L641.646 263.872H646.056L646.854 266ZM642.276 262.178L643.844 258.034L645.412 262.178H642.276ZM649.776 266H651.722V256.2H649.776V266ZM660.017 256.2V262.556L655.089 256.2H653.507V266H655.425V259.63L660.353 266H661.935V256.2H660.017ZM670.957 257.936V256.2H663.733V266H670.943V264.264H665.609V261.856H670.243V260.176H665.609V257.936H670.957ZM678.685 266H680.897L678.461 262.374C679.847 261.898 680.603 260.68 680.603 259.392C680.603 257.838 679.371 256.2 677.243 256.2H672.469V266H674.373V262.57H676.459L678.685 266ZM674.373 257.922H677.187C678.097 257.922 678.741 258.608 678.741 259.392C678.741 260.204 678.111 260.89 677.117 260.89H674.373V257.922Z" fill="#343536"/>
            </g>
            <g id="app">
                <g id="Rectangle_6" filter="url(#filter5_di_11_130)">
                    <rect x="604" y="280" width="72" height="54" rx="5" fill="white"/>
                    <rect x="604.25" y="280.25" width="71.5" height="53.5" rx="4.75" stroke="#B3B3B3" stroke-width="0.5"/>
                </g>
                <path id="TITLE_6" d="M633.853 302H635.855L632.089 292.2H629.597L625.845 302H627.833L628.645 299.872H633.055L633.853 302ZM629.275 298.178L630.843 294.034L632.411 298.178H629.275ZM641.366 292.2H636.774V302H638.678V299.004H641.282C643.536 299.004 644.768 297.254 644.768 295.602C644.768 293.978 643.522 292.2 641.366 292.2ZM641.226 297.296H638.678V293.936H641.31C642.248 293.936 642.906 294.748 642.906 295.616C642.906 296.47 642.262 297.296 641.226 297.296ZM650.526 292.2H645.934V302H647.838V299.004H650.442C652.696 299.004 653.928 297.254 653.928 295.602C653.928 293.978 652.682 292.2 650.526 292.2ZM650.386 297.296H647.838V293.936H650.47C651.408 293.936 652.066 294.748 652.066 295.616C652.066 296.47 651.422 297.296 650.386 297.296Z" fill="#343536"/>
            </g>
            <g id="volume">
                <g id="Rectangle_7" filter="url(#filter6_di_11_130)">
                    <rect x="586" y="361" width="108" height="63" rx="5" fill="white"/>
                    <rect x="586.25" y="361.25" width="107.5" height="62.5" rx="4.75" stroke="#B3B3B3" stroke-width="0.5"/>
                </g>
                <path id="TITLE_7" d="M618.234 373.2L615.434 380.564L612.634 373.2H610.52L614.384 383H616.484L620.348 373.2H618.234ZM625.552 383.196C628.506 383.196 630.69 380.984 630.69 378.086C630.69 375.202 628.506 373.004 625.552 373.004C622.584 373.004 620.4 375.202 620.4 378.086C620.4 380.984 622.584 383.196 625.552 383.196ZM625.552 381.418C623.606 381.418 622.346 379.962 622.346 378.086C622.346 376.252 623.606 374.782 625.552 374.782C627.484 374.782 628.758 376.252 628.758 378.086C628.758 379.962 627.484 381.418 625.552 381.418ZM633.989 381.236V373.2H632.071V383H638.875V381.236H633.989ZM646.195 373.2V378.954C646.195 380.396 645.425 381.432 643.885 381.432C642.359 381.432 641.589 380.396 641.589 378.954V373.2H639.643V378.982C639.643 381.474 641.141 383.196 643.885 383.196C646.615 383.196 648.127 381.474 648.127 378.982V373.2H646.195ZM658.076 373.2L654.87 377.834L651.664 373.2H649.83V383H651.748V376.546L654.87 380.872L657.992 376.546V383H659.91V373.2H658.076ZM668.92 374.936V373.2H661.696V383H668.906V381.264H663.572V378.856H668.206V377.176H663.572V374.936H668.92Z" fill="#343536"/>
            </g>
            <g id="app_icon">
                <g id="Union_482">
                    <path id="Path" d="M642.028 314.999C642.318 314.709 642.318 314.229 642.028 313.939C641.738 313.649 641.257 313.649 640.967 313.939L640.468 314.439C640.178 314.729 640.178 315.209 640.468 315.499C640.757 315.789 641.238 315.789 641.528 315.499L642.028 314.999Z" fill="#000001"/>
                    <path id="Shape" fill-rule="evenodd" clip-rule="evenodd" d="M646.877 307.039C648.107 306.779 649.187 307.859 648.927 309.089C648.547 310.919 647.857 314.139 647.167 316.899C646.987 317.629 646.627 318.279 646.157 318.869V318.879L645.697 322.079C645.637 322.529 645.397 322.929 645.037 323.209L641.527 325.949C640.757 326.539 639.667 326.399 639.067 325.639L637.287 323.349C636.787 323.189 636.377 322.819 636.157 322.369C635.917 321.879 635.567 321.299 635.117 320.849C634.667 320.399 634.087 320.049 633.597 319.809C633.147 319.589 632.777 319.179 632.617 318.679L630.327 316.899C629.567 316.299 629.427 315.209 630.017 314.439L632.757 310.929C633.037 310.569 633.437 310.329 633.887 310.269L637.087 309.809H637.097C637.687 309.339 638.337 308.979 639.067 308.799C641.827 308.109 645.047 307.419 646.877 307.039ZM635.477 311.559L634.097 311.749C634.037 311.759 633.977 311.799 633.937 311.849L631.207 315.359C631.117 315.469 631.137 315.629 631.247 315.709L632.847 316.959C633.227 315.839 633.827 314.279 634.657 312.829C634.907 312.399 635.177 311.969 635.477 311.559ZM643.137 321.309C643.567 321.059 643.997 320.789 644.407 320.489L644.217 321.869C644.207 321.929 644.167 321.989 644.117 322.029L640.607 324.759C640.497 324.849 640.337 324.829 640.257 324.719L639.007 323.119C640.127 322.739 641.687 322.139 643.137 321.309ZM647.457 308.779C647.497 308.609 647.357 308.469 647.187 308.509C645.357 308.879 642.167 309.569 639.427 310.249C638.107 310.579 636.927 311.889 635.957 313.579C635.017 315.229 634.377 317.059 634.047 318.109C634.037 318.159 634.037 318.209 634.067 318.279C634.107 318.349 634.167 318.419 634.267 318.459C634.817 318.739 635.567 319.169 636.177 319.789C636.797 320.399 637.227 321.149 637.507 321.699C637.547 321.799 637.617 321.859 637.687 321.899C637.757 321.929 637.807 321.929 637.857 321.919C638.907 321.589 640.737 320.949 642.387 320.009C644.077 319.039 645.387 317.859 645.717 316.539C646.397 313.799 647.087 310.609 647.457 308.779Z" fill="#000001"/>
                    <path id="Path_2" d="M631.277 320.689C631.567 320.979 631.567 321.459 631.277 321.749L630.278 322.749C629.988 323.039 629.507 323.039 629.218 322.749C628.928 322.459 628.928 321.979 629.218 321.689L630.217 320.689C630.507 320.399 630.987 320.399 631.277 320.689Z" fill="#000001"/>
                    <path id="Path_3" d="M633.778 322.189C634.068 322.479 634.068 322.959 633.778 323.249L630.778 326.249C630.488 326.539 630.007 326.539 629.718 326.249C629.428 325.959 629.428 325.479 629.718 325.189L632.717 322.189C633.007 321.899 633.488 321.899 633.778 322.189Z" fill="#000001"/>
                    <path id="Path_4" d="M635.277 325.749C635.567 325.459 635.567 324.979 635.277 324.689C634.987 324.399 634.507 324.399 634.217 324.689L633.218 325.689C632.928 325.979 632.928 326.459 633.218 326.749C633.507 327.039 633.988 327.039 634.278 326.749L635.277 325.749Z" fill="#000001"/>
                </g>
            </g>
            <g id="volume_icon">
                <path id="Union_191" fill-rule="evenodd" clip-rule="evenodd" d="M657.75 396.5C657.75 395.6 656.952 394.892 656.015 394.388C655.06 393.872 653.758 393.44 652.263 393.104C649.258 392.408 645.188 392 640.75 392C636.312 392 632.242 392.408 629.237 393.104C627.742 393.44 626.44 393.872 625.485 394.388C624.548 394.892 623.75 395.6 623.75 396.5V411.392C623.75 412.292 624.521 413.012 625.461 413.54C626.413 414.08 627.713 414.512 629.207 414.872C632.21 415.58 636.284 416 640.75 416C645.216 416 649.29 415.58 652.293 414.872C653.787 414.512 655.087 414.08 656.039 413.54C656.979 413.012 657.75 412.292 657.75 411.392V396.5ZM627.464 397.613C626.829 398.064 626.75 398.376 626.75 398.5C626.75 398.624 626.829 398.936 627.464 399.387C628.08 399.838 629.049 400.289 630.358 400.693C632.962 401.487 636.636 402 640.75 402C644.864 402 648.538 401.487 651.142 400.693C652.451 400.289 653.42 399.838 654.036 399.387C654.671 398.936 654.75 398.624 654.75 398.5C654.75 398.376 654.671 398.064 654.036 397.613C653.42 397.162 652.451 396.711 651.142 396.307C648.538 395.513 644.864 395 640.75 395C636.636 395 632.962 395.513 630.358 396.307C629.049 396.711 628.08 397.162 627.464 397.613ZM654.75 403C653.944 403.47 652.975 403.875 651.904 404.216C648.994 405.156 645.05 405.707 640.75 405.707C636.45 405.707 632.506 405.156 629.596 404.216C628.525 403.875 627.556 403.47 626.75 403V409.353C626.75 409.483 626.831 409.807 627.459 410.293C628.071 410.747 629.035 411.217 630.34 411.639C632.936 412.465 636.61 413 640.75 413C644.89 413 648.564 412.465 651.16 411.639C652.465 411.217 653.429 410.747 654.041 410.293C654.669 409.807 654.75 409.483 654.75 409.353V403Z" fill="#343536"/>
            </g>
        </g>
        <g id="node_01">
            <g id="worker_node">
                <g id="Rectangle_8" filter="url(#filter7_di_11_130)">
                    <rect x="820" y="100" width="180" height="358" rx="5" fill="white"/>
                    <rect x="820.25" y="100.25" width="179.5" height="357.5" rx="4.75" stroke="#B3B3B3" stroke-width="0.5"/>
                </g>
                <path id="TITLE_8" d="M868.495 112.2L866.479 119.298L864.435 112.2H862.713L860.669 119.298L858.653 112.2H856.637L859.619 122H861.649L863.581 115.42L865.513 122H867.543L870.511 112.2H868.495ZM875.853 122.196C878.807 122.196 880.991 119.984 880.991 117.086C880.991 114.202 878.807 112.004 875.853 112.004C872.885 112.004 870.701 114.202 870.701 117.086C870.701 119.984 872.885 122.196 875.853 122.196ZM875.853 120.418C873.907 120.418 872.647 118.962 872.647 117.086C872.647 115.252 873.907 113.782 875.853 113.782C877.785 113.782 879.059 115.252 879.059 117.086C879.059 118.962 877.785 120.418 875.853 120.418ZM888.588 122H890.8L888.364 118.374C889.75 117.898 890.506 116.68 890.506 115.392C890.506 113.838 889.274 112.2 887.146 112.2H882.372V122H884.276V118.57H886.362L888.588 122ZM884.276 113.922H887.09C888 113.922 888.644 114.608 888.644 115.392C888.644 116.204 888.014 116.89 887.02 116.89H884.276V113.922ZM898.532 122H900.87L896.698 116.484L900.562 112.2H898.126L893.996 116.946V112.2H892.078V122H893.996V119.494L895.438 117.898L898.532 122ZM909.118 113.936V112.2H901.894V122H909.104V120.264H903.77V117.856H908.404V116.176H903.77V113.936H909.118ZM916.846 122H919.058L916.622 118.374C918.008 117.898 918.764 116.68 918.764 115.392C918.764 113.838 917.532 112.2 915.404 112.2H910.63V122H912.534V118.57H914.62L916.846 122ZM912.534 113.922H915.348C916.258 113.922 916.902 114.608 916.902 115.392C916.902 116.204 916.272 116.89 915.278 116.89H912.534V113.922ZM930.263 112.2V118.556L925.335 112.2H923.753V122H925.671V115.63L930.599 122H932.181V112.2H930.263ZM938.725 122.196C941.679 122.196 943.863 119.984 943.863 117.086C943.863 114.202 941.679 112.004 938.725 112.004C935.757 112.004 933.573 114.202 933.573 117.086C933.573 119.984 935.757 122.196 938.725 122.196ZM938.725 120.418C936.779 120.418 935.519 118.962 935.519 117.086C935.519 115.252 936.779 113.782 938.725 113.782C940.657 113.782 941.931 115.252 941.931 117.086C941.931 118.962 940.657 120.418 938.725 120.418ZM949.5 112.2H945.244V122H949.5C952.384 122 954.19 119.928 954.19 117.1C954.19 114.216 952.356 112.2 949.5 112.2ZM949.458 120.264H947.148V113.922H949.458C951.138 113.922 952.258 115.196 952.258 117.058C952.258 118.948 951.138 120.264 949.458 120.264ZM962.804 113.936V112.2H955.58V122H962.79V120.264H957.456V117.856H962.09V116.176H957.456V113.936H962.804Z" fill="#343536"/>
            </g>
            <g id="kubelet">
                <g id="Rectangle_9" filter="url(#filter8_di_11_130)">
                    <rect x="838" y="136" width="144" height="36" rx="5" fill="white"/>
                    <rect x="838.25" y="136.25" width="143.5" height="35.5" rx="4.75" stroke="#B3B3B3" stroke-width="0.5"/>
                </g>
                <path id="TITLE_9" d="M885.654 158H887.992L883.82 152.484L887.684 148.2H885.248L881.118 152.946V148.2H879.2V158H881.118V155.494L882.56 153.898L885.654 158ZM894.923 148.2V153.954C894.923 155.396 894.153 156.432 892.613 156.432C891.087 156.432 890.317 155.396 890.317 153.954V148.2H888.371V153.982C888.371 156.474 889.869 158.196 892.613 158.196C895.343 158.196 896.855 156.474 896.855 153.982V148.2H894.923ZM905.25 152.862C906.006 152.456 906.468 151.756 906.468 150.818C906.454 149.264 905.152 148.2 903.234 148.2H898.558V158H903.5C905.586 158 906.832 156.908 906.832 155.228C906.832 154.122 906.216 153.296 905.25 152.862ZM903.22 149.852C904.032 149.838 904.578 150.356 904.578 151.042C904.592 151.714 904.06 152.274 903.262 152.274H900.434V149.852H903.22ZM903.486 156.334H900.434V153.786H903.5C904.41 153.786 904.928 154.346 904.928 155.046C904.928 155.76 904.396 156.334 903.486 156.334ZM915.447 149.936V148.2H908.223V158H915.433V156.264H910.099V153.856H914.733V152.176H910.099V149.936H915.447ZM918.877 156.236V148.2H916.959V158H923.763V156.236H918.877ZM932.194 149.936V148.2H924.97V158H932.18V156.264H926.846V153.856H931.48V152.176H926.846V149.936H932.194ZM941.504 148.2H933.006V149.936H936.296V158H938.214V149.936H941.504V148.2Z" fill="#343536"/>
            </g>
            <g id="pod">
                <g id="Rectangle_10" filter="url(#filter9_di_11_130)">
                    <rect x="838" y="208" width="144" height="234" rx="5" fill="white"/>
                    <rect x="838.25" y="208.25" width="143.5" height="233.5" rx="4.75" stroke="#B3B3B3" stroke-width="0.5"/>
                </g>
                <path id="TITLE_10" d="M900.108 220.2H895.516V230H897.42V227.004H900.024C902.278 227.004 903.51 225.254 903.51 223.602C903.51 221.978 902.264 220.2 900.108 220.2ZM899.968 225.296H897.42V221.936H900.052C900.99 221.936 901.648 222.748 901.648 223.616C901.648 224.47 901.004 225.296 899.968 225.296ZM909.422 230.196C912.376 230.196 914.56 227.984 914.56 225.086C914.56 222.202 912.376 220.004 909.422 220.004C906.454 220.004 904.27 222.202 904.27 225.086C904.27 227.984 906.454 230.196 909.422 230.196ZM909.422 228.418C907.476 228.418 906.216 226.962 906.216 225.086C906.216 223.252 907.476 221.782 909.422 221.782C911.354 221.782 912.628 223.252 912.628 225.086C912.628 226.962 911.354 228.418 909.422 228.418ZM920.197 220.2H915.941V230H920.197C923.081 230 924.887 227.928 924.887 225.1C924.887 222.216 923.053 220.2 920.197 220.2ZM920.155 228.264H917.845V221.922H920.155C921.835 221.922 922.955 223.196 922.955 225.058C922.955 226.948 921.835 228.264 920.155 228.264Z" fill="#343536"/>
            </g>
            <g id="container">
                <g id="Rectangle_11" filter="url(#filter10_di_11_130)">
                    <rect x="856" y="244" width="108" height="108" rx="5" fill="white"/>
                    <rect x="856.25" y="244.25" width="107.5" height="107.5" rx="4.75" stroke="#B3B3B3" stroke-width="0.5"/>
                </g>
                <path id="TITLE_11" d="M874.363 266.196C876.953 266.196 878.605 264.614 879.053 263.046L877.191 262.57C876.869 263.536 875.819 264.39 874.335 264.39C872.403 264.39 871.171 262.836 871.171 261.072C871.171 259.308 872.403 257.81 874.335 257.81C875.819 257.81 876.869 258.692 877.191 259.644L879.067 259.182C878.619 257.628 876.967 256.004 874.321 256.004C871.409 256.004 869.211 258.202 869.211 261.086C869.211 263.984 871.409 266.196 874.363 266.196ZM885.122 266.196C888.076 266.196 890.26 263.984 890.26 261.086C890.26 258.202 888.076 256.004 885.122 256.004C882.154 256.004 879.97 258.202 879.97 261.086C879.97 263.984 882.154 266.196 885.122 266.196ZM885.122 264.418C883.176 264.418 881.916 262.962 881.916 261.086C881.916 259.252 883.176 257.782 885.122 257.782C887.054 257.782 888.328 259.252 888.328 261.086C888.328 262.962 887.054 264.418 885.122 264.418ZM898.151 256.2V262.556L893.223 256.2H891.641V266H893.559V259.63L898.487 266H900.069V256.2H898.151ZM909.665 256.2H901.167V257.936H904.457V266H906.375V257.936H909.665V256.2ZM916.854 266H918.856L915.09 256.2H912.598L908.846 266H910.834L911.646 263.872H916.056L916.854 266ZM912.276 262.178L913.844 258.034L915.412 262.178H912.276ZM919.776 266H921.722V256.2H919.776V266ZM930.017 256.2V262.556L925.089 256.2H923.507V266H925.425V259.63L930.353 266H931.935V256.2H930.017ZM940.957 257.936V256.2H933.733V266H940.943V264.264H935.609V261.856H940.243V260.176H935.609V257.936H940.957ZM948.685 266H950.897L948.461 262.374C949.847 261.898 950.603 260.68 950.603 259.392C950.603 257.838 949.371 256.2 947.243 256.2H942.469V266H944.373V262.57H946.459L948.685 266ZM944.373 257.922H947.187C948.097 257.922 948.741 258.608 948.741 259.392C948.741 260.204 948.111 260.89 947.117 260.89H944.373V257.922Z" fill="#343536"/>
            </g>
            <g id="app">
                <g id="Rectangle_12" filter="url(#filter11_di_11_130)">
                    <rect x="874" y="280" width="72" height="54" rx="5" fill="white"/>
                    <rect x="874.25" y="280.25" width="71.5" height="53.5" rx="4.75" stroke="#B3B3B3" stroke-width="0.5"/>
                </g>
                <path id="TITLE_12" d="M903.853 302H905.855L902.089 292.2H899.597L895.845 302H897.833L898.645 299.872H903.055L903.853 302ZM899.275 298.178L900.843 294.034L902.411 298.178H899.275ZM911.366 292.2H906.774V302H908.678V299.004H911.282C913.536 299.004 914.768 297.254 914.768 295.602C914.768 293.978 913.522 292.2 911.366 292.2ZM911.226 297.296H908.678V293.936H911.31C912.248 293.936 912.906 294.748 912.906 295.616C912.906 296.47 912.262 297.296 911.226 297.296ZM920.526 292.2H915.934V302H917.838V299.004H920.442C922.696 299.004 923.928 297.254 923.928 295.602C923.928 293.978 922.682 292.2 920.526 292.2ZM920.386 297.296H917.838V293.936H920.47C921.408 293.936 922.066 294.748 922.066 295.616C922.066 296.47 921.422 297.296 920.386 297.296Z" fill="#343536"/>
            </g>
            <g id="volume">
                <g id="Rectangle_13" filter="url(#filter12_di_11_130)">
                    <rect x="856" y="361" width="108" height="63" rx="5" fill="white"/>
                    <rect x="856.25" y="361.25" width="107.5" height="62.5" rx="4.75" stroke="#B3B3B3" stroke-width="0.5"/>
                </g>
                <path id="TITLE_13" d="M888.234 373.2L885.434 380.564L882.634 373.2H880.52L884.384 383H886.484L890.348 373.2H888.234ZM895.552 383.196C898.506 383.196 900.69 380.984 900.69 378.086C900.69 375.202 898.506 373.004 895.552 373.004C892.584 373.004 890.4 375.202 890.4 378.086C890.4 380.984 892.584 383.196 895.552 383.196ZM895.552 381.418C893.606 381.418 892.346 379.962 892.346 378.086C892.346 376.252 893.606 374.782 895.552 374.782C897.484 374.782 898.758 376.252 898.758 378.086C898.758 379.962 897.484 381.418 895.552 381.418ZM903.989 381.236V373.2H902.071V383H908.875V381.236H903.989ZM916.195 373.2V378.954C916.195 380.396 915.425 381.432 913.885 381.432C912.359 381.432 911.589 380.396 911.589 378.954V373.2H909.643V378.982C909.643 381.474 911.141 383.196 913.885 383.196C916.615 383.196 918.127 381.474 918.127 378.982V373.2H916.195ZM928.076 373.2L924.87 377.834L921.664 373.2H919.83V383H921.748V376.546L924.87 380.872L927.992 376.546V383H929.91V373.2H928.076ZM938.92 374.936V373.2H931.696V383H938.906V381.264H933.572V378.856H938.206V377.176H933.572V374.936H938.92Z" fill="#343536"/>
            </g>
            <g id="app_icon_2">
                <g id="Union_482_2">
                    <path id="Path_5" d="M912.028 314.999C912.318 314.709 912.318 314.229 912.028 313.939C911.738 313.649 911.257 313.649 910.967 313.939L910.468 314.439C910.178 314.729 910.178 315.209 910.468 315.499C910.757 315.789 911.238 315.789 911.528 315.499L912.028 314.999Z" fill="#000001"/>
                    <path id="Shape_2" fill-rule="evenodd" clip-rule="evenodd" d="M916.877 307.039C918.107 306.779 919.187 307.859 918.927 309.089C918.547 310.919 917.857 314.139 917.167 316.899C916.987 317.629 916.627 318.279 916.157 318.869V318.879L915.697 322.079C915.637 322.529 915.397 322.929 915.037 323.209L911.527 325.949C910.757 326.539 909.667 326.399 909.067 325.639L907.287 323.349C906.787 323.189 906.377 322.819 906.157 322.369C905.917 321.879 905.567 321.299 905.117 320.849C904.667 320.399 904.087 320.049 903.597 319.809C903.147 319.589 902.777 319.179 902.617 318.679L900.327 316.899C899.567 316.299 899.427 315.209 900.017 314.439L902.757 310.929C903.037 310.569 903.437 310.329 903.887 310.269L907.087 309.809H907.097C907.687 309.339 908.337 308.979 909.067 308.799C911.827 308.109 915.047 307.419 916.877 307.039ZM905.477 311.559L904.097 311.749C904.037 311.759 903.977 311.799 903.937 311.849L901.207 315.359C901.117 315.469 901.137 315.629 901.247 315.709L902.847 316.959C903.227 315.839 903.827 314.279 904.657 312.829C904.907 312.399 905.177 311.969 905.477 311.559ZM913.137 321.309C913.567 321.059 913.997 320.789 914.407 320.489L914.217 321.869C914.207 321.929 914.167 321.989 914.117 322.029L910.607 324.759C910.497 324.849 910.337 324.829 910.257 324.719L909.007 323.119C910.127 322.739 911.687 322.139 913.137 321.309ZM917.457 308.779C917.497 308.609 917.357 308.469 917.187 308.509C915.357 308.879 912.167 309.569 909.427 310.249C908.107 310.579 906.927 311.889 905.957 313.579C905.017 315.229 904.377 317.059 904.047 318.109C904.037 318.159 904.037 318.209 904.067 318.279C904.107 318.349 904.167 318.419 904.267 318.459C904.817 318.739 905.567 319.169 906.177 319.789C906.797 320.399 907.227 321.149 907.507 321.699C907.547 321.799 907.617 321.859 907.687 321.899C907.757 321.929 907.807 321.929 907.857 321.919C908.907 321.589 910.737 320.949 912.387 320.009C914.077 319.039 915.387 317.859 915.717 316.539C916.397 313.799 917.087 310.609 917.457 308.779Z" fill="#000001"/>
                    <path id="Path_6" d="M901.277 320.689C901.567 320.979 901.567 321.459 901.277 321.749L900.278 322.749C899.988 323.039 899.507 323.039 899.218 322.749C898.928 322.459 898.928 321.979 899.218 321.689L900.217 320.689C900.507 320.399 900.987 320.399 901.277 320.689Z" fill="#000001"/>
                    <path id="Path_7" d="M903.778 322.189C904.068 322.479 904.068 322.959 903.778 323.249L900.778 326.249C900.488 326.539 900.007 326.539 899.718 326.249C899.428 325.959 899.428 325.479 899.718 325.189L902.717 322.189C903.007 321.899 903.488 321.899 903.778 322.189Z" fill="#000001"/>
                    <path id="Path_8" d="M905.277 325.749C905.567 325.459 905.567 324.979 905.277 324.689C904.987 324.399 904.507 324.399 904.217 324.689L903.218 325.689C902.928 325.979 902.928 326.459 903.218 326.749C903.507 327.039 903.988 327.039 904.278 326.749L905.277 325.749Z" fill="#000001"/>
                </g>
            </g>
            <g id="volume_icon_2">
                <path id="Union_191_2" fill-rule="evenodd" clip-rule="evenodd" d="M927.75 396.5C927.75 395.6 926.952 394.892 926.015 394.388C925.06 393.872 923.758 393.44 922.263 393.104C919.258 392.408 915.188 392 910.75 392C906.312 392 902.242 392.408 899.237 393.104C897.742 393.44 896.44 393.872 895.485 394.388C894.548 394.892 893.75 395.6 893.75 396.5V411.392C893.75 412.292 894.521 413.012 895.461 413.54C896.413 414.08 897.713 414.512 899.207 414.872C902.21 415.58 906.284 416 910.75 416C915.216 416 919.29 415.58 922.293 414.872C923.787 414.512 925.087 414.08 926.039 413.54C926.979 413.012 927.75 412.292 927.75 411.392V396.5ZM897.464 397.613C896.829 398.064 896.75 398.376 896.75 398.5C896.75 398.624 896.829 398.936 897.464 399.387C898.08 399.838 899.049 400.289 900.358 400.693C902.962 401.487 906.636 402 910.75 402C914.864 402 918.538 401.487 921.142 400.693C922.451 400.289 923.42 399.838 924.036 399.387C924.671 398.936 924.75 398.624 924.75 398.5C924.75 398.376 924.671 398.064 924.036 397.613C923.42 397.162 922.451 396.711 921.142 396.307C918.538 395.513 914.864 395 910.75 395C906.636 395 902.962 395.513 900.358 396.307C899.049 396.711 898.08 397.162 897.464 397.613ZM924.75 403C923.944 403.47 922.975 403.875 921.904 404.216C918.994 405.156 915.05 405.707 910.75 405.707C906.45 405.707 902.506 405.156 899.596 404.216C898.525 403.875 897.556 403.47 896.75 403V409.353C896.75 409.483 896.831 409.807 897.459 410.293C898.071 410.747 899.035 411.217 900.34 411.639C902.936 412.465 906.61 413 910.75 413C914.89 413 918.564 412.465 921.16 411.639C922.465 411.217 923.429 410.747 924.041 410.293C924.669 409.807 924.75 409.483 924.75 409.353V403Z" fill="#343536"/>
            </g>
        </g>
        <g id="control_plane">
            <g id="Rectangle_14" filter="url(#filter13_di_11_130)">
                <rect x="10" y="10" width="360" height="540" rx="5" fill="#E6F7FF" fill-opacity="0.5" shape-rendering="crispEdges"/>
                <rect x="10.25" y="10.25" width="359.5" height="539.5" rx="4.75" stroke="#B3B3B3" stroke-width="0.5" shape-rendering="crispEdges"/>
            </g>
            <path id="TITLE_14" d="M97.0348 70.936C101.475 70.936 104.307 68.224 105.075 65.536L101.883 64.72C101.331 66.376 99.5308 67.84 96.9868 67.84C93.6748 67.84 91.5628 65.176 91.5628 62.152C91.5628 59.128 93.6748 56.56 96.9868 56.56C99.5308 56.56 101.331 58.072 101.883 59.704L105.099 58.912C104.331 56.248 101.499 53.464 96.9628 53.464C91.9708 53.464 88.2028 57.232 88.2028 62.176C88.2028 67.144 91.9708 70.936 97.0348 70.936ZM115.479 70.936C120.543 70.936 124.287 67.144 124.287 62.176C124.287 57.232 120.543 53.464 115.479 53.464C110.391 53.464 106.647 57.232 106.647 62.176C106.647 67.144 110.391 70.936 115.479 70.936ZM115.479 67.888C112.143 67.888 109.983 65.392 109.983 62.176C109.983 59.032 112.143 56.512 115.479 56.512C118.791 56.512 120.975 59.032 120.975 62.176C120.975 65.392 118.791 67.888 115.479 67.888ZM137.814 53.8V64.696L129.366 53.8H126.654V70.6H129.942V59.68L138.39 70.6H141.102V53.8H137.814ZM157.552 53.8H142.984V56.776H148.624V70.6H151.912V56.776H157.552V53.8ZM170.074 70.6H173.866L169.69 64.384C172.066 63.568 173.362 61.48 173.362 59.272C173.362 56.608 171.25 53.8 167.602 53.8H159.418V70.6H162.682V64.72H166.258L170.074 70.6ZM162.682 56.752H167.506C169.066 56.752 170.17 57.928 170.17 59.272C170.17 60.664 169.09 61.84 167.386 61.84H162.682V56.752ZM183.959 70.936C189.023 70.936 192.767 67.144 192.767 62.176C192.767 57.232 189.023 53.464 183.959 53.464C178.871 53.464 175.127 57.232 175.127 62.176C175.127 67.144 178.871 70.936 183.959 70.936ZM183.959 67.888C180.623 67.888 178.463 65.392 178.463 62.176C178.463 59.032 180.623 56.512 183.959 56.512C187.271 56.512 189.455 59.032 189.455 62.176C189.455 65.392 187.271 67.888 183.959 67.888ZM198.422 67.576V53.8H195.134V70.6H206.798V67.576H198.422ZM222.598 53.8H214.726V70.6H217.99V65.464H222.454C226.318 65.464 228.43 62.464 228.43 59.632C228.43 56.848 226.294 53.8 222.598 53.8ZM222.358 62.536H217.99V56.776H222.502C224.11 56.776 225.238 58.168 225.238 59.656C225.238 61.12 224.134 62.536 222.358 62.536ZM233.716 67.576V53.8H230.428V70.6H242.092V67.576H233.716ZM256.659 70.6H260.091L253.635 53.8H249.363L242.931 70.6H246.339L247.731 66.952H255.291L256.659 70.6ZM248.811 64.048L251.499 56.944L254.187 64.048H248.811ZM272.828 53.8V64.696L264.38 53.8H261.668V70.6H264.956V59.68L273.404 70.6H276.116V53.8H272.828ZM291.582 56.776V53.8H279.198V70.6H291.558V67.624H282.414V63.496H290.358V60.616H282.414V56.776H291.582Z" fill="#343536"/>
        </g>

        <g id="push_vertical">
            <g id="Group 2" style="--order: 2">
                <path id="line_v" d="M270 155V225" stroke-width="3" stroke-dasharray="5 5"/>
            </g>
            <g id="Group 4" style="--order: 4">
                <path id="line_v_2" d="M271 409V339" stroke-width="3" stroke-dasharray="5 5"/>
            </g>
            <g id="Group 7" style="--order: 7">
                <path id="line_v_3" d="M414 278V158" stroke-width="3" stroke-dasharray="5 5"/>
            </g>
            <g id="Group 9" style="--order: 9">
                <path id="line_v_4" d="M641 205V175" stroke-width="3" stroke-dasharray="5 5"/>
            </g>
        </g>
        <g id="push_horizontal">
            <g id="Group 1" style="--order: 1">
                <path id="line_h" d="M185 145H265" stroke-width="3" stroke-dasharray="5 5"/>
            </g>
            <g id="Group 3" style="--order: 3">
                <path id="line_h_2" d="M185 416H265" stroke-width="3" stroke-dasharray="5 5"/>
            </g>
            <g id="Group 5" style="--order: 5">
                <path id="line_h_3" d="M175 283H205" stroke-width="3" stroke-dasharray="5 5"/>
            </g>
            <g id="Group 6" style="--order: 6">
                <path id="line_h_4" d="M340 283H410" stroke-width="3" stroke-dasharray="5 5"/>
            </g>
            <g id="Group 8" style="--order: 8">
                <path id="line_h_5" d="M420 155H561" stroke-width="3" stroke-dasharray="5 5"/>
            </g>
        </g>
        <g id="api_service">
            <g id="api">
                <g id="Rectangle_15" filter="url(#filter14_di_11_130)">
                    <rect x="207" y="235" width="125.576" height="90" rx="5" fill="white"/>
                    <rect x="207.25" y="235.25" width="125.076" height="89.5" rx="4.75" stroke="#B3B3B3" stroke-width="0.5"/>
                </g>
                <path id="TITLE_15" d="M236.908 257H238.91L235.144 247.2H232.652L228.9 257H230.888L231.7 254.872H236.11L236.908 257ZM232.33 253.178L233.898 249.034L235.466 253.178H232.33ZM244.421 247.2H239.829V257H241.733V254.004H244.337C246.591 254.004 247.823 252.254 247.823 250.602C247.823 248.978 246.577 247.2 244.421 247.2ZM244.281 252.296H241.733V248.936H244.365C245.303 248.936 245.961 249.748 245.961 250.616C245.961 251.47 245.317 252.296 244.281 252.296ZM248.989 257H250.935V247.2H248.989V257ZM260.142 257.196C262.494 257.196 264.062 255.838 264.062 254.158C264.062 252.562 262.928 251.932 261.43 251.47L258.994 250.686C258.35 250.49 258.056 250.196 258.056 249.762C258.056 249.188 258.672 248.698 259.638 248.698C260.744 248.698 261.654 249.244 262.06 250.042L263.838 249.524C263.306 248.166 261.738 247.004 259.624 247.004C257.58 247.004 256.096 248.292 256.11 249.818C256.096 251.078 257.034 251.904 258.322 252.31L260.828 253.094C261.766 253.402 262.116 253.752 262.116 254.27C262.116 254.914 261.402 255.502 260.254 255.502C258.84 255.502 257.846 254.69 257.454 253.668L255.62 254.228C256.166 255.754 257.748 257.196 260.142 257.196ZM272.685 248.936V247.2H265.461V257H272.671V255.264H267.337V252.856H271.971V251.176H267.337V248.936H272.685ZM280.413 257H282.625L280.189 253.374C281.575 252.898 282.331 251.68 282.331 250.392C282.331 248.838 281.099 247.2 278.971 247.2H274.197V257H276.101V253.57H278.187L280.413 257ZM276.101 248.922H278.915C279.825 248.922 280.469 249.608 280.469 250.392C280.469 251.204 279.839 251.89 278.845 251.89H276.101V248.922ZM290.531 247.2L287.731 254.564L284.931 247.2H282.817L286.681 257H288.781L292.645 247.2H290.531ZM300.82 248.936V247.2H293.596V257H300.806V255.264H295.472V252.856H300.106V251.176H295.472V248.936H300.82ZM308.548 257H310.76L308.324 253.374C309.71 252.898 310.466 251.68 310.466 250.392C310.466 248.838 309.234 247.2 307.106 247.2H302.332V257H304.236V253.57H306.322L308.548 257ZM304.236 248.922H307.05C307.96 248.922 308.604 249.608 308.604 250.392C308.604 251.204 307.974 251.89 306.98 251.89H304.236V248.922Z" fill="#343536"/>
            </g>
            <g id="api_icon">
                <path id="Path_9" fill-rule="evenodd" clip-rule="evenodd" d="M265.034 303.981C265.034 303.981 244.104 305.323 244.104 288.673C244.104 272.022 265.034 274.372 265.034 274.372V303.981Z" stroke="#343536" stroke-width="3" stroke-linecap="round"/>
                <path id="Path_10" fill-rule="evenodd" clip-rule="evenodd" d="M277.99 274.259C277.99 274.259 298.919 272.425 298.919 289.475C298.919 306.526 277.99 303.672 277.99 303.672V274.259Z" stroke="#343536" stroke-width="3" stroke-linecap="round"/>
                <path id="Path_11" d="M271.013 283.581H277.99" stroke="#343536" stroke-width="3" stroke-linecap="round"/>
                <path id="Path_12" d="M235.902 289.5H242.879" stroke="#343536" stroke-width="3" stroke-linecap="round"/>
                <path id="Path_13" d="M271.013 295.581H277.99" stroke="#343536" stroke-width="3" stroke-linecap="round"/>
                <path id="Path_14" d="M298.96 289.419L303.673 289.5" stroke="#343536" stroke-width="3" stroke-linecap="round"/>
            </g>
        </g>
        <g id="etcd_service">
            <g id="etcd">
                <g id="Rectangle_16" filter="url(#filter15_di_11_130)">
                    <rect x="45.8788" y="370" width="125.576" height="90" rx="5" fill="white"/>
                    <rect x="46.1288" y="370.25" width="125.076" height="89.5" rx="4.75" stroke="#B3B3B3" stroke-width="0.5"/>
                </g>
                <path id="TITLE_16" d="M97.9894 383.936V382.2H90.7654V392H97.9754V390.264H92.6414V387.856H97.2754V386.176H92.6414V383.936H97.9894ZM107.299 382.2H98.801V383.936H102.091V392H104.009V383.936H107.299V382.2ZM112.436 392.196C115.026 392.196 116.678 390.614 117.126 389.046L115.264 388.57C114.942 389.536 113.892 390.39 112.408 390.39C110.476 390.39 109.244 388.836 109.244 387.072C109.244 385.308 110.476 383.81 112.408 383.81C113.892 383.81 114.942 384.692 115.264 385.644L117.14 385.182C116.692 383.628 115.04 382.004 112.394 382.004C109.482 382.004 107.284 384.202 107.284 387.086C107.284 389.984 109.482 392.196 112.436 392.196ZM122.705 382.2H118.449V392H122.705C125.589 392 127.395 389.928 127.395 387.1C127.395 384.216 125.561 382.2 122.705 382.2ZM122.663 390.264H120.353V383.922H122.663C124.343 383.922 125.463 385.196 125.463 387.058C125.463 388.948 124.343 390.264 122.663 390.264Z" fill="#343536"/>
            </g>
            <g id="etcd_icon">
                <g id="Union_636">
                    <path id="Shape_3" fill-rule="evenodd" clip-rule="evenodd" d="M103.185 425C103.185 420.035 107.201 416 112.155 416C117.109 416 121.125 420.035 121.125 425C121.125 429.965 117.109 434 112.155 434C107.201 434 103.185 429.965 103.185 425ZM106.671 421.085C105.888 422.195 105.428 423.545 105.428 425C105.428 426.455 105.888 427.805 106.671 428.915L108.841 426.74C108.57 426.215 108.418 425.63 108.418 425C108.418 424.37 108.57 423.785 108.841 423.26L106.671 421.085ZM108.258 419.495L110.427 421.67C110.942 421.4 111.531 421.25 112.155 421.25C112.778 421.25 113.367 421.4 113.883 421.67L116.052 419.495C114.953 418.715 113.608 418.25 112.155 418.25C110.702 418.25 109.356 418.715 108.258 419.495ZM110.427 428.33L108.258 430.505C109.356 431.285 110.702 431.75 112.155 431.75C113.608 431.75 114.953 431.285 116.052 430.505L113.883 428.33C113.367 428.6 112.778 428.75 112.155 428.75C111.531 428.75 110.942 428.6 110.427 428.33ZM118.882 425C118.882 426.455 118.422 427.805 117.638 428.915L115.469 426.74C115.74 426.215 115.892 425.63 115.892 425C115.892 424.37 115.74 423.785 115.469 423.26L117.638 421.085C118.422 422.195 118.882 423.545 118.882 425ZM110.66 425C110.66 424.175 111.33 423.5 112.155 423.5C112.98 423.5 113.65 424.175 113.65 425C113.65 425.825 112.98 426.5 112.155 426.5C111.33 426.5 110.66 425.825 110.66 425Z" fill="#000001"/>
                    <path id="Path_15" d="M98.3266 414.5C98.9455 414.5 99.4478 415.01 99.4478 415.625V419.375C99.4478 419.99 98.9455 420.5 98.3266 420.5C97.7077 420.5 97.2054 419.99 97.2054 419.375V415.625C97.2054 415.01 97.7077 414.5 98.3266 414.5Z" fill="#000001"/>
                    <path id="Path_16" d="M99.4478 430.625C99.4478 430.01 98.9455 429.5 98.3266 429.5C97.7077 429.5 97.2054 430.01 97.2054 430.625V434.375C97.2054 434.99 97.7077 435.5 98.3266 435.5C98.9455 435.5 99.4478 434.99 99.4478 434.375V430.625Z" fill="#000001"/>
                    <path id="Shape_4" fill-rule="evenodd" clip-rule="evenodd" d="M92.7205 414.125C92.7205 411.845 94.5608 410 96.8317 410H121.498C123.769 410 125.609 411.845 125.609 414.125V435.875C125.609 438.155 123.769 440 121.498 440H121.311V441.5C121.311 442.22 120.725 442.82 120.003 442.82C119.281 442.82 118.695 442.22 118.695 441.5V440H99.6347V441.5C99.6347 442.22 99.0487 442.82 98.3266 442.82C97.6045 442.82 97.0185 442.22 97.0185 441.5V440H96.8317C94.5608 440 92.7205 438.155 92.7205 435.875V414.125ZM96.8317 412.25C95.8001 412.25 94.963 413.09 94.963 414.125V435.875C94.963 436.91 95.8001 437.75 96.8317 437.75H121.498C122.53 437.75 123.367 436.91 123.367 435.875V414.125C123.367 413.09 122.53 412.25 121.498 412.25H96.8317Z" fill="#000001"/>
                </g>
            </g>
        </g>
        <g id="scheduler_service">
            <g id="scheduler">
                <g id="Rectangle_17" filter="url(#filter16_di_11_130)">
                    <rect x="45.8788" y="235" width="125.576" height="90" rx="5" fill="white"/>
                    <rect x="46.1288" y="235.25" width="125.076" height="89.5" rx="4.75" stroke="#B3B3B3" stroke-width="0.5"/>
                </g>
                <path id="TITLE_17" d="M70.9614 257.196C73.3134 257.196 74.8814 255.838 74.8814 254.158C74.8814 252.562 73.7474 251.932 72.2494 251.47L69.8134 250.686C69.1694 250.49 68.8754 250.196 68.8754 249.762C68.8754 249.188 69.4914 248.698 70.4574 248.698C71.5634 248.698 72.4734 249.244 72.8794 250.042L74.6574 249.524C74.1254 248.166 72.5574 247.004 70.4434 247.004C68.3994 247.004 66.9154 248.292 66.9294 249.818C66.9154 251.078 67.8534 251.904 69.1414 252.31L71.6474 253.094C72.5854 253.402 72.9354 253.752 72.9354 254.27C72.9354 254.914 72.2214 255.502 71.0734 255.502C69.6594 255.502 68.6654 254.69 68.2734 253.668L66.4394 254.228C66.9854 255.754 68.5674 257.196 70.9614 257.196ZM80.8356 257.196C83.4256 257.196 85.0776 255.614 85.5256 254.046L83.6636 253.57C83.3416 254.536 82.2916 255.39 80.8076 255.39C78.8756 255.39 77.6436 253.836 77.6436 252.072C77.6436 250.308 78.8756 248.81 80.8076 248.81C82.2916 248.81 83.3416 249.692 83.6636 250.644L85.5396 250.182C85.0916 248.628 83.4396 247.004 80.7936 247.004C77.8816 247.004 75.6836 249.202 75.6836 252.086C75.6836 254.984 77.8816 257.196 80.8356 257.196ZM93.2467 247.2V251.148H88.7667V247.2H86.8487V257H88.7667V252.884H93.2467V257H95.1787V247.2H93.2467ZM104.189 248.936V247.2H96.9652V257H104.175V255.264H98.8412V252.856H103.475V251.176H98.8412V248.936H104.189ZM109.957 247.2H105.701V257H109.957C112.841 257 114.647 254.928 114.647 252.1C114.647 249.216 112.813 247.2 109.957 247.2ZM109.915 255.264H107.605V248.922H109.915C111.595 248.922 112.715 250.196 112.715 252.058C112.715 253.948 111.595 255.264 109.915 255.264ZM122.504 247.2V252.954C122.504 254.396 121.734 255.432 120.194 255.432C118.668 255.432 117.898 254.396 117.898 252.954V247.2H115.952V252.982C115.952 255.474 117.45 257.196 120.194 257.196C122.924 257.196 124.436 255.474 124.436 252.982V247.2H122.504ZM128.057 255.236V247.2H126.139V257H132.943V255.236H128.057ZM141.374 248.936V247.2H134.15V257H141.36V255.264H136.026V252.856H140.66V251.176H136.026V248.936H141.374ZM149.102 257H151.314L148.878 253.374C150.264 252.898 151.02 251.68 151.02 250.392C151.02 248.838 149.788 247.2 147.66 247.2H142.886V257H144.79V253.57H146.876L149.102 257ZM144.79 248.922H147.604C148.514 248.922 149.158 249.608 149.158 250.392C149.158 251.204 148.528 251.89 147.534 251.89H144.79V248.922Z" fill="#343536"/>
            </g>
            <g id="scheduler_icon">
                <path id="Union_83" fill-rule="evenodd" clip-rule="evenodd" d="M116.869 275.253C116.869 274.606 116.299 274.081 115.598 274.081C114.897 274.081 114.327 274.606 114.327 275.253V276.817H102.467V275.253C102.467 274.606 101.898 274.081 101.197 274.081C100.495 274.081 99.9259 274.606 99.9259 275.253V276.817H96.1138C93.5402 276.817 91.4545 278.741 91.4545 281.116V303.782C91.4545 306.157 93.5402 308.081 96.1138 308.081H120.681C123.254 308.081 125.34 306.157 125.34 303.782V281.116C125.34 278.741 123.254 276.817 120.681 276.817H116.869V275.253ZM121.274 286.321V281.41C121.274 280.367 120.425 279.521 119.38 279.521H115.972V281.788C115.972 282.413 115.463 282.921 114.836 282.921C114.208 282.921 113.699 282.413 113.699 281.788V279.521H103.095V281.788C103.095 282.413 102.586 282.921 101.959 282.921C101.332 282.921 100.823 282.413 100.823 281.788V279.521H97.4144C96.3691 279.521 95.5208 280.367 95.5208 281.41V286.321H121.274ZM95.5208 289.041H121.274V303.507C121.274 304.53 120.425 305.361 119.38 305.361H97.4144C96.3691 305.361 95.5208 304.53 95.5208 303.507V289.041Z" fill="#343536"/>
            </g>
        </g>
        <g id="controller_service" data-clickable="true">
            <g id="controller">
                <g id="Rectangle_18" filter="url(#filter17_di_11_130)">
                    <rect x="45.8788" y="100" width="125.576" height="90" rx="5" fill="white"/>
                    <rect x="46.1288" y="100.25" width="125.076" height="89.5" rx="4.75" stroke="#B3B3B3" stroke-width="0.5"/>
                </g>
                <path id="TITLE_18" d="M66.3034 122.196C68.8934 122.196 70.5454 120.614 70.9934 119.046L69.1314 118.57C68.8094 119.536 67.7594 120.39 66.2754 120.39C64.3434 120.39 63.1114 118.836 63.1114 117.072C63.1114 115.308 64.3434 113.81 66.2754 113.81C67.7594 113.81 68.8094 114.692 69.1314 115.644L71.0074 115.182C70.5594 113.628 68.9074 112.004 66.2614 112.004C63.3494 112.004 61.1514 114.202 61.1514 117.086C61.1514 119.984 63.3494 122.196 66.3034 122.196ZM77.0625 122.196C80.0165 122.196 82.2005 119.984 82.2005 117.086C82.2005 114.202 80.0165 112.004 77.0625 112.004C74.0945 112.004 71.9105 114.202 71.9105 117.086C71.9105 119.984 74.0945 122.196 77.0625 122.196ZM77.0625 120.418C75.1165 120.418 73.8565 118.962 73.8565 117.086C73.8565 115.252 75.1165 113.782 77.0625 113.782C78.9945 113.782 80.2685 115.252 80.2685 117.086C80.2685 118.962 78.9945 120.418 77.0625 120.418ZM90.0914 112.2V118.556L85.1634 112.2H83.5814V122H85.4994V115.63L90.4274 122H92.0094V112.2H90.0914ZM101.605 112.2H93.1073V113.936H96.3973V122H98.3153V113.936H101.605V112.2ZM108.909 122H111.121L108.685 118.374C110.071 117.898 110.827 116.68 110.827 115.392C110.827 113.838 109.595 112.2 107.467 112.2H102.693V122H104.597V118.57H106.683L108.909 122ZM104.597 113.922H107.411C108.321 113.922 108.965 114.608 108.965 115.392C108.965 116.204 108.335 116.89 107.341 116.89H104.597V113.922ZM117.009 122.196C119.963 122.196 122.147 119.984 122.147 117.086C122.147 114.202 119.963 112.004 117.009 112.004C114.041 112.004 111.857 114.202 111.857 117.086C111.857 119.984 114.041 122.196 117.009 122.196ZM117.009 120.418C115.063 120.418 113.803 118.962 113.803 117.086C113.803 115.252 115.063 113.782 117.009 113.782C118.941 113.782 120.215 115.252 120.215 117.086C120.215 118.962 118.941 120.418 117.009 120.418ZM125.446 120.236V112.2H123.528V122H130.332V120.236H125.446ZM133.457 120.236V112.2H131.539V122H138.343V120.236H133.457ZM146.774 113.936V112.2H139.55V122H146.76V120.264H141.426V117.856H146.06V116.176H141.426V113.936H146.774ZM154.502 122H156.714L154.278 118.374C155.664 117.898 156.42 116.68 156.42 115.392C156.42 113.838 155.188 112.2 153.06 112.2H148.286V122H150.19V118.57H152.276L154.502 122ZM150.19 113.922H153.004C153.914 113.922 154.558 114.608 154.558 115.392C154.558 116.204 153.928 116.89 152.934 116.89H150.19V113.922Z" fill="#343536"/>
            </g>
            <g id="controller_icon">
                <path id="Path_17" d="M92.4646 165.703H126.35" stroke="#343536" stroke-width="3" stroke-linecap="round"/>
                <path id="Path_18" d="M92.4646 154.703H126.35" stroke="#343536" stroke-width="3" stroke-linecap="round"/>
                <path id="Path_19" d="M92.4646 142.703H126.35" stroke="#343536" stroke-width="3" stroke-linecap="round"/>
                <path id="Oval" d="M100.931 142.703C100.931 145.469 98.6974 147.703 95.9529 147.703C93.2083 147.703 90.9747 145.469 90.9747 142.703C90.9747 139.937 93.2083 137.703 95.9529 137.703C98.6974 137.703 100.931 139.937 100.931 142.703Z" fill="white" stroke="#343536" stroke-width="3"/>
                <path id="Oval_2" d="M126.843 153.703C126.843 156.469 124.61 158.703 121.865 158.703C119.121 158.703 116.887 156.469 116.887 153.703C116.887 150.937 119.121 148.703 121.865 148.703C124.61 148.703 126.843 150.937 126.843 153.703Z" fill="white" stroke="#343536" stroke-width="3"/>
                <path id="Oval_3" d="M100.931 165.703C100.931 168.469 98.6974 170.703 95.9529 170.703C93.2083 170.703 90.9747 168.469 90.9747 165.703C90.9747 162.937 93.2083 160.703 95.9529 160.703C98.6974 160.703 100.931 162.937 100.931 165.703Z" fill="white" stroke="#343536" stroke-width="3"/>
            </g>
        </g>
    </g>
    <defs>
        <filter id="filter0_di_11_130" x="458" y="8" width="640" height="550" filterUnits="userSpaceOnUse" color-interpolation-filters="sRGB">
            <feFlood flood-opacity="0" result="BackgroundImageFix"/>
            <feColorMatrix in="SourceAlpha" type="matrix" values="0 0 0 0 0 0 0 0 0 0 0 0 0 0 0 0 0 0 127 0" result="hardAlpha"/>
            <feMorphology radius="5" operator="erode" in="SourceAlpha" result="effect1_dropShadow_11_130"/>
            <feOffset dx="3" dy="3"/>
            <feGaussianBlur stdDeviation="5"/>
            <feComposite in2="hardAlpha" operator="out"/>
            <feColorMatrix type="matrix" values="0 0 0 0 0 0 0 0 0 0 0 0 0 0 0 0 0 0 0.25 0"/>
            <feBlend mode="normal" in2="BackgroundImageFix" result="effect1_dropShadow_11_130"/>
            <feBlend mode="normal" in="SourceGraphic" in2="effect1_dropShadow_11_130" result="shape"/>
            <feColorMatrix in="SourceAlpha" type="matrix" values="0 0 0 0 0 0 0 0 0 0 0 0 0 0 0 0 0 0 127 0" result="hardAlpha"/>
            <feMorphology radius="5" operator="dilate" in="SourceAlpha" result="effect2_innerShadow_11_130"/>
            <feOffset dx="3" dy="3"/>
            <feGaussianBlur stdDeviation="5"/>
            <feComposite in2="hardAlpha" operator="arithmetic" k2="-1" k3="1"/>
            <feColorMatrix type="matrix" values="0 0 0 0 1 0 0 0 0 1 0 0 0 0 1 0 0 0 1 0"/>
            <feBlend mode="normal" in2="shape" result="effect2_innerShadow_11_130"/>
        </filter>
        <filter id="filter1_di_11_130" x="548" y="98" width="190" height="368" filterUnits="userSpaceOnUse" color-interpolation-filters="sRGB">
            <feFlood flood-opacity="0" result="BackgroundImageFix"/>
            <feColorMatrix in="SourceAlpha" type="matrix" values="0 0 0 0 0 0 0 0 0 0 0 0 0 0 0 0 0 0 127 0" result="hardAlpha"/>
            <feMorphology radius="5" operator="erode" in="SourceAlpha" result="effect1_dropShadow_11_130"/>
            <feOffset dx="3" dy="3"/>
            <feGaussianBlur stdDeviation="5"/>
            <feComposite in2="hardAlpha" operator="out"/>
            <feColorMatrix type="matrix" values="0 0 0 0 0 0 0 0 0 0 0 0 0 0 0 0 0 0 0.25 0"/>
            <feBlend mode="normal" in2="BackgroundImageFix" result="effect1_dropShadow_11_130"/>
            <feBlend mode="normal" in="SourceGraphic" in2="effect1_dropShadow_11_130" result="shape"/>
            <feColorMatrix in="SourceAlpha" type="matrix" values="0 0 0 0 0 0 0 0 0 0 0 0 0 0 0 0 0 0 127 0" result="hardAlpha"/>
            <feMorphology radius="5" operator="dilate" in="SourceAlpha" result="effect2_innerShadow_11_130"/>
            <feOffset dx="3" dy="3"/>
            <feGaussianBlur stdDeviation="5"/>
            <feComposite in2="hardAlpha" operator="arithmetic" k2="-1" k3="1"/>
            <feColorMatrix type="matrix" values="0 0 0 0 1 0 0 0 0 1 0 0 0 0 1 0 0 0 1 0"/>
            <feBlend mode="normal" in2="shape" result="effect2_innerShadow_11_130"/>
        </filter>
        <filter id="filter2_di_11_130" x="566" y="134" width="154" height="46" filterUnits="userSpaceOnUse" color-interpolation-filters="sRGB">
            <feFlood flood-opacity="0" result="BackgroundImageFix"/>
            <feColorMatrix in="SourceAlpha" type="matrix" values="0 0 0 0 0 0 0 0 0 0 0 0 0 0 0 0 0 0 127 0" result="hardAlpha"/>
            <feMorphology radius="5" operator="erode" in="SourceAlpha" result="effect1_dropShadow_11_130"/>
            <feOffset dx="3" dy="3"/>
            <feGaussianBlur stdDeviation="5"/>
            <feComposite in2="hardAlpha" operator="out"/>
            <feColorMatrix type="matrix" values="0 0 0 0 0 0 0 0 0 0 0 0 0 0 0 0 0 0 0.25 0"/>
            <feBlend mode="normal" in2="BackgroundImageFix" result="effect1_dropShadow_11_130"/>
            <feBlend mode="normal" in="SourceGraphic" in2="effect1_dropShadow_11_130" result="shape"/>
            <feColorMatrix in="SourceAlpha" type="matrix" values="0 0 0 0 0 0 0 0 0 0 0 0 0 0 0 0 0 0 127 0" result="hardAlpha"/>
            <feMorphology radius="5" operator="dilate" in="SourceAlpha" result="effect2_innerShadow_11_130"/>
            <feOffset dx="3" dy="3"/>
            <feGaussianBlur stdDeviation="5"/>
            <feComposite in2="hardAlpha" operator="arithmetic" k2="-1" k3="1"/>
            <feColorMatrix type="matrix" values="0 0 0 0 1 0 0 0 0 1 0 0 0 0 1 0 0 0 1 0"/>
            <feBlend mode="normal" in2="shape" result="effect2_innerShadow_11_130"/>
        </filter>
        <filter id="filter3_di_11_130" x="566" y="206" width="154" height="244" filterUnits="userSpaceOnUse" color-interpolation-filters="sRGB">
            <feFlood flood-opacity="0" result="BackgroundImageFix"/>
            <feColorMatrix in="SourceAlpha" type="matrix" values="0 0 0 0 0 0 0 0 0 0 0 0 0 0 0 0 0 0 127 0" result="hardAlpha"/>
            <feMorphology radius="5" operator="erode" in="SourceAlpha" result="effect1_dropShadow_11_130"/>
            <feOffset dx="3" dy="3"/>
            <feGaussianBlur stdDeviation="5"/>
            <feComposite in2="hardAlpha" operator="out"/>
            <feColorMatrix type="matrix" values="0 0 0 0 0 0 0 0 0 0 0 0 0 0 0 0 0 0 0.25 0"/>
            <feBlend mode="normal" in2="BackgroundImageFix" result="effect1_dropShadow_11_130"/>
            <feBlend mode="normal" in="SourceGraphic" in2="effect1_dropShadow_11_130" result="shape"/>
            <feColorMatrix in="SourceAlpha" type="matrix" values="0 0 0 0 0 0 0 0 0 0 0 0 0 0 0 0 0 0 127 0" result="hardAlpha"/>
            <feMorphology radius="5" operator="dilate" in="SourceAlpha" result="effect2_innerShadow_11_130"/>
            <feOffset dx="3" dy="3"/>
            <feGaussianBlur stdDeviation="5"/>
            <feComposite in2="hardAlpha" operator="arithmetic" k2="-1" k3="1"/>
            <feColorMatrix type="matrix" values="0 0 0 0 1 0 0 0 0 1 0 0 0 0 1 0 0 0 1 0"/>
            <feBlend mode="normal" in2="shape" result="effect2_innerShadow_11_130"/>
        </filter>
        <filter id="filter4_di_11_130" x="584" y="242" width="118" height="118" filterUnits="userSpaceOnUse" color-interpolation-filters="sRGB">
            <feFlood flood-opacity="0" result="BackgroundImageFix"/>
            <feColorMatrix in="SourceAlpha" type="matrix" values="0 0 0 0 0 0 0 0 0 0 0 0 0 0 0 0 0 0 127 0" result="hardAlpha"/>
            <feMorphology radius="5" operator="erode" in="SourceAlpha" result="effect1_dropShadow_11_130"/>
            <feOffset dx="3" dy="3"/>
            <feGaussianBlur stdDeviation="5"/>
            <feComposite in2="hardAlpha" operator="out"/>
            <feColorMatrix type="matrix" values="0 0 0 0 0 0 0 0 0 0 0 0 0 0 0 0 0 0 0.25 0"/>
            <feBlend mode="normal" in2="BackgroundImageFix" result="effect1_dropShadow_11_130"/>
            <feBlend mode="normal" in="SourceGraphic" in2="effect1_dropShadow_11_130" result="shape"/>
            <feColorMatrix in="SourceAlpha" type="matrix" values="0 0 0 0 0 0 0 0 0 0 0 0 0 0 0 0 0 0 127 0" result="hardAlpha"/>
            <feMorphology radius="5" operator="dilate" in="SourceAlpha" result="effect2_innerShadow_11_130"/>
            <feOffset dx="3" dy="3"/>
            <feGaussianBlur stdDeviation="5"/>
            <feComposite in2="hardAlpha" operator="arithmetic" k2="-1" k3="1"/>
            <feColorMatrix type="matrix" values="0 0 0 0 1 0 0 0 0 1 0 0 0 0 1 0 0 0 1 0"/>
            <feBlend mode="normal" in2="shape" result="effect2_innerShadow_11_130"/>
        </filter>
        <filter id="filter5_di_11_130" x="602" y="278" width="82" height="64" filterUnits="userSpaceOnUse" color-interpolation-filters="sRGB">
            <feFlood flood-opacity="0" result="BackgroundImageFix"/>
            <feColorMatrix in="SourceAlpha" type="matrix" values="0 0 0 0 0 0 0 0 0 0 0 0 0 0 0 0 0 0 127 0" result="hardAlpha"/>
            <feMorphology radius="5" operator="erode" in="SourceAlpha" result="effect1_dropShadow_11_130"/>
            <feOffset dx="3" dy="3"/>
            <feGaussianBlur stdDeviation="5"/>
            <feComposite in2="hardAlpha" operator="out"/>
            <feColorMatrix type="matrix" values="0 0 0 0 0 0 0 0 0 0 0 0 0 0 0 0 0 0 0.25 0"/>
            <feBlend mode="normal" in2="BackgroundImageFix" result="effect1_dropShadow_11_130"/>
            <feBlend mode="normal" in="SourceGraphic" in2="effect1_dropShadow_11_130" result="shape"/>
            <feColorMatrix in="SourceAlpha" type="matrix" values="0 0 0 0 0 0 0 0 0 0 0 0 0 0 0 0 0 0 127 0" result="hardAlpha"/>
            <feMorphology radius="5" operator="dilate" in="SourceAlpha" result="effect2_innerShadow_11_130"/>
            <feOffset dx="3" dy="3"/>
            <feGaussianBlur stdDeviation="5"/>
            <feComposite in2="hardAlpha" operator="arithmetic" k2="-1" k3="1"/>
            <feColorMatrix type="matrix" values="0 0 0 0 1 0 0 0 0 1 0 0 0 0 1 0 0 0 1 0"/>
            <feBlend mode="normal" in2="shape" result="effect2_innerShadow_11_130"/>
        </filter>
        <filter id="filter6_di_11_130" x="584" y="359" width="118" height="73" filterUnits="userSpaceOnUse" color-interpolation-filters="sRGB">
            <feFlood flood-opacity="0" result="BackgroundImageFix"/>
            <feColorMatrix in="SourceAlpha" type="matrix" values="0 0 0 0 0 0 0 0 0 0 0 0 0 0 0 0 0 0 127 0" result="hardAlpha"/>
            <feMorphology radius="5" operator="erode" in="SourceAlpha" result="effect1_dropShadow_11_130"/>
            <feOffset dx="3" dy="3"/>
            <feGaussianBlur stdDeviation="5"/>
            <feComposite in2="hardAlpha" operator="out"/>
            <feColorMatrix type="matrix" values="0 0 0 0 0 0 0 0 0 0 0 0 0 0 0 0 0 0 0.25 0"/>
            <feBlend mode="normal" in2="BackgroundImageFix" result="effect1_dropShadow_11_130"/>
            <feBlend mode="normal" in="SourceGraphic" in2="effect1_dropShadow_11_130" result="shape"/>
            <feColorMatrix in="SourceAlpha" type="matrix" values="0 0 0 0 0 0 0 0 0 0 0 0 0 0 0 0 0 0 127 0" result="hardAlpha"/>
            <feMorphology radius="5" operator="dilate" in="SourceAlpha" result="effect2_innerShadow_11_130"/>
            <feOffset dx="3" dy="3"/>
            <feGaussianBlur stdDeviation="5"/>
            <feComposite in2="hardAlpha" operator="arithmetic" k2="-1" k3="1"/>
            <feColorMatrix type="matrix" values="0 0 0 0 1 0 0 0 0 1 0 0 0 0 1 0 0 0 1 0"/>
            <feBlend mode="normal" in2="shape" result="effect2_innerShadow_11_130"/>
        </filter>
        <filter id="filter7_di_11_130" x="818" y="98" width="190" height="368" filterUnits="userSpaceOnUse" color-interpolation-filters="sRGB">
            <feFlood flood-opacity="0" result="BackgroundImageFix"/>
            <feColorMatrix in="SourceAlpha" type="matrix" values="0 0 0 0 0 0 0 0 0 0 0 0 0 0 0 0 0 0 127 0" result="hardAlpha"/>
            <feMorphology radius="5" operator="erode" in="SourceAlpha" result="effect1_dropShadow_11_130"/>
            <feOffset dx="3" dy="3"/>
            <feGaussianBlur stdDeviation="5"/>
            <feComposite in2="hardAlpha" operator="out"/>
            <feColorMatrix type="matrix" values="0 0 0 0 0 0 0 0 0 0 0 0 0 0 0 0 0 0 0.25 0"/>
            <feBlend mode="normal" in2="BackgroundImageFix" result="effect1_dropShadow_11_130"/>
            <feBlend mode="normal" in="SourceGraphic" in2="effect1_dropShadow_11_130" result="shape"/>
            <feColorMatrix in="SourceAlpha" type="matrix" values="0 0 0 0 0 0 0 0 0 0 0 0 0 0 0 0 0 0 127 0" result="hardAlpha"/>
            <feMorphology radius="5" operator="dilate" in="SourceAlpha" result="effect2_innerShadow_11_130"/>
            <feOffset dx="3" dy="3"/>
            <feGaussianBlur stdDeviation="5"/>
            <feComposite in2="hardAlpha" operator="arithmetic" k2="-1" k3="1"/>
            <feColorMatrix type="matrix" values="0 0 0 0 1 0 0 0 0 1 0 0 0 0 1 0 0 0 1 0"/>
            <feBlend mode="normal" in2="shape" result="effect2_innerShadow_11_130"/>
        </filter>
        <filter id="filter8_di_11_130" x="836" y="134" width="154" height="46" filterUnits="userSpaceOnUse" color-interpolation-filters="sRGB">
            <feFlood flood-opacity="0" result="BackgroundImageFix"/>
            <feColorMatrix in="SourceAlpha" type="matrix" values="0 0 0 0 0 0 0 0 0 0 0 0 0 0 0 0 0 0 127 0" result="hardAlpha"/>
            <feMorphology radius="5" operator="erode" in="SourceAlpha" result="effect1_dropShadow_11_130"/>
            <feOffset dx="3" dy="3"/>
            <feGaussianBlur stdDeviation="5"/>
            <feComposite in2="hardAlpha" operator="out"/>
            <feColorMatrix type="matrix" values="0 0 0 0 0 0 0 0 0 0 0 0 0 0 0 0 0 0 0.25 0"/>
            <feBlend mode="normal" in2="BackgroundImageFix" result="effect1_dropShadow_11_130"/>
            <feBlend mode="normal" in="SourceGraphic" in2="effect1_dropShadow_11_130" result="shape"/>
            <feColorMatrix in="SourceAlpha" type="matrix" values="0 0 0 0 0 0 0 0 0 0 0 0 0 0 0 0 0 0 127 0" result="hardAlpha"/>
            <feMorphology radius="5" operator="dilate" in="SourceAlpha" result="effect2_innerShadow_11_130"/>
            <feOffset dx="3" dy="3"/>
            <feGaussianBlur stdDeviation="5"/>
            <feComposite in2="hardAlpha" operator="arithmetic" k2="-1" k3="1"/>
            <feColorMatrix type="matrix" values="0 0 0 0 1 0 0 0 0 1 0 0 0 0 1 0 0 0 1 0"/>
            <feBlend mode="normal" in2="shape" result="effect2_innerShadow_11_130"/>
        </filter>
        <filter id="filter9_di_11_130" x="836" y="206" width="154" height="244" filterUnits="userSpaceOnUse" color-interpolation-filters="sRGB">
            <feFlood flood-opacity="0" result="BackgroundImageFix"/>
            <feColorMatrix in="SourceAlpha" type="matrix" values="0 0 0 0 0 0 0 0 0 0 0 0 0 0 0 0 0 0 127 0" result="hardAlpha"/>
            <feMorphology radius="5" operator="erode" in="SourceAlpha" result="effect1_dropShadow_11_130"/>
            <feOffset dx="3" dy="3"/>
            <feGaussianBlur stdDeviation="5"/>
            <feComposite in2="hardAlpha" operator="out"/>
            <feColorMatrix type="matrix" values="0 0 0 0 0 0 0 0 0 0 0 0 0 0 0 0 0 0 0.25 0"/>
            <feBlend mode="normal" in2="BackgroundImageFix" result="effect1_dropShadow_11_130"/>
            <feBlend mode="normal" in="SourceGraphic" in2="effect1_dropShadow_11_130" result="shape"/>
            <feColorMatrix in="SourceAlpha" type="matrix" values="0 0 0 0 0 0 0 0 0 0 0 0 0 0 0 0 0 0 127 0" result="hardAlpha"/>
            <feMorphology radius="5" operator="dilate" in="SourceAlpha" result="effect2_innerShadow_11_130"/>
            <feOffset dx="3" dy="3"/>
            <feGaussianBlur stdDeviation="5"/>
            <feComposite in2="hardAlpha" operator="arithmetic" k2="-1" k3="1"/>
            <feColorMatrix type="matrix" values="0 0 0 0 1 0 0 0 0 1 0 0 0 0 1 0 0 0 1 0"/>
            <feBlend mode="normal" in2="shape" result="effect2_innerShadow_11_130"/>
        </filter>
        <filter id="filter10_di_11_130" x="854" y="242" width="118" height="118" filterUnits="userSpaceOnUse" color-interpolation-filters="sRGB">
            <feFlood flood-opacity="0" result="BackgroundImageFix"/>
            <feColorMatrix in="SourceAlpha" type="matrix" values="0 0 0 0 0 0 0 0 0 0 0 0 0 0 0 0 0 0 127 0" result="hardAlpha"/>
            <feMorphology radius="5" operator="erode" in="SourceAlpha" result="effect1_dropShadow_11_130"/>
            <feOffset dx="3" dy="3"/>
            <feGaussianBlur stdDeviation="5"/>
            <feComposite in2="hardAlpha" operator="out"/>
            <feColorMatrix type="matrix" values="0 0 0 0 0 0 0 0 0 0 0 0 0 0 0 0 0 0 0.25 0"/>
            <feBlend mode="normal" in2="BackgroundImageFix" result="effect1_dropShadow_11_130"/>
            <feBlend mode="normal" in="SourceGraphic" in2="effect1_dropShadow_11_130" result="shape"/>
            <feColorMatrix in="SourceAlpha" type="matrix" values="0 0 0 0 0 0 0 0 0 0 0 0 0 0 0 0 0 0 127 0" result="hardAlpha"/>
            <feMorphology radius="5" operator="dilate" in="SourceAlpha" result="effect2_innerShadow_11_130"/>
            <feOffset dx="3" dy="3"/>
            <feGaussianBlur stdDeviation="5"/>
            <feComposite in2="hardAlpha" operator="arithmetic" k2="-1" k3="1"/>
            <feColorMatrix type="matrix" values="0 0 0 0 1 0 0 0 0 1 0 0 0 0 1 0 0 0 1 0"/>
            <feBlend mode="normal" in2="shape" result="effect2_innerShadow_11_130"/>
        </filter>
        <filter id="filter11_di_11_130" x="872" y="278" width="82" height="64" filterUnits="userSpaceOnUse" color-interpolation-filters="sRGB">
            <feFlood flood-opacity="0" result="BackgroundImageFix"/>
            <feColorMatrix in="SourceAlpha" type="matrix" values="0 0 0 0 0 0 0 0 0 0 0 0 0 0 0 0 0 0 127 0" result="hardAlpha"/>
            <feMorphology radius="5" operator="erode" in="SourceAlpha" result="effect1_dropShadow_11_130"/>
            <feOffset dx="3" dy="3"/>
            <feGaussianBlur stdDeviation="5"/>
            <feComposite in2="hardAlpha" operator="out"/>
            <feColorMatrix type="matrix" values="0 0 0 0 0 0 0 0 0 0 0 0 0 0 0 0 0 0 0.25 0"/>
            <feBlend mode="normal" in2="BackgroundImageFix" result="effect1_dropShadow_11_130"/>
            <feBlend mode="normal" in="SourceGraphic" in2="effect1_dropShadow_11_130" result="shape"/>
            <feColorMatrix in="SourceAlpha" type="matrix" values="0 0 0 0 0 0 0 0 0 0 0 0 0 0 0 0 0 0 127 0" result="hardAlpha"/>
            <feMorphology radius="5" operator="dilate" in="SourceAlpha" result="effect2_innerShadow_11_130"/>
            <feOffset dx="3" dy="3"/>
            <feGaussianBlur stdDeviation="5"/>
            <feComposite in2="hardAlpha" operator="arithmetic" k2="-1" k3="1"/>
            <feColorMatrix type="matrix" values="0 0 0 0 1 0 0 0 0 1 0 0 0 0 1 0 0 0 1 0"/>
            <feBlend mode="normal" in2="shape" result="effect2_innerShadow_11_130"/>
        </filter>
        <filter id="filter12_di_11_130" x="854" y="359" width="118" height="73" filterUnits="userSpaceOnUse" color-interpolation-filters="sRGB">
            <feFlood flood-opacity="0" result="BackgroundImageFix"/>
            <feColorMatrix in="SourceAlpha" type="matrix" values="0 0 0 0 0 0 0 0 0 0 0 0 0 0 0 0 0 0 127 0" result="hardAlpha"/>
            <feMorphology radius="5" operator="erode" in="SourceAlpha" result="effect1_dropShadow_11_130"/>
            <feOffset dx="3" dy="3"/>
            <feGaussianBlur stdDeviation="5"/>
            <feComposite in2="hardAlpha" operator="out"/>
            <feColorMatrix type="matrix" values="0 0 0 0 0 0 0 0 0 0 0 0 0 0 0 0 0 0 0.25 0"/>
            <feBlend mode="normal" in2="BackgroundImageFix" result="effect1_dropShadow_11_130"/>
            <feBlend mode="normal" in="SourceGraphic" in2="effect1_dropShadow_11_130" result="shape"/>
            <feColorMatrix in="SourceAlpha" type="matrix" values="0 0 0 0 0 0 0 0 0 0 0 0 0 0 0 0 0 0 127 0" result="hardAlpha"/>
            <feMorphology radius="5" operator="dilate" in="SourceAlpha" result="effect2_innerShadow_11_130"/>
            <feOffset dx="3" dy="3"/>
            <feGaussianBlur stdDeviation="5"/>
            <feComposite in2="hardAlpha" operator="arithmetic" k2="-1" k3="1"/>
            <feColorMatrix type="matrix" values="0 0 0 0 1 0 0 0 0 1 0 0 0 0 1 0 0 0 1 0"/>
            <feBlend mode="normal" in2="shape" result="effect2_innerShadow_11_130"/>
        </filter>
        <filter id="filter13_di_11_130" x="8" y="8" width="370" height="550" filterUnits="userSpaceOnUse" color-interpolation-filters="sRGB">
            <feFlood flood-opacity="0" result="BackgroundImageFix"/>
            <feColorMatrix in="SourceAlpha" type="matrix" values="0 0 0 0 0 0 0 0 0 0 0 0 0 0 0 0 0 0 127 0" result="hardAlpha"/>
            <feMorphology radius="5" operator="erode" in="SourceAlpha" result="effect1_dropShadow_11_130"/>
            <feOffset dx="3" dy="3"/>
            <feGaussianBlur stdDeviation="5"/>
            <feComposite in2="hardAlpha" operator="out"/>
            <feColorMatrix type="matrix" values="0 0 0 0 0 0 0 0 0 0 0 0 0 0 0 0 0 0 0.25 0"/>
            <feBlend mode="normal" in2="BackgroundImageFix" result="effect1_dropShadow_11_130"/>
            <feBlend mode="normal" in="SourceGraphic" in2="effect1_dropShadow_11_130" result="shape"/>
            <feColorMatrix in="SourceAlpha" type="matrix" values="0 0 0 0 0 0 0 0 0 0 0 0 0 0 0 0 0 0 127 0" result="hardAlpha"/>
            <feMorphology radius="5" operator="dilate" in="SourceAlpha" result="effect2_innerShadow_11_130"/>
            <feOffset dx="3" dy="3"/>
            <feGaussianBlur stdDeviation="5"/>
            <feComposite in2="hardAlpha" operator="arithmetic" k2="-1" k3="1"/>
            <feColorMatrix type="matrix" values="0 0 0 0 1 0 0 0 0 1 0 0 0 0 1 0 0 0 1 0"/>
            <feBlend mode="normal" in2="shape" result="effect2_innerShadow_11_130"/>
        </filter>
        <filter id="filter14_di_11_130" x="205" y="233" width="135.576" height="100" filterUnits="userSpaceOnUse" color-interpolation-filters="sRGB">
            <feFlood flood-opacity="0" result="BackgroundImageFix"/>
            <feColorMatrix in="SourceAlpha" type="matrix" values="0 0 0 0 0 0 0 0 0 0 0 0 0 0 0 0 0 0 127 0" result="hardAlpha"/>
            <feMorphology radius="5" operator="erode" in="SourceAlpha" result="effect1_dropShadow_11_130"/>
            <feOffset dx="3" dy="3"/>
            <feGaussianBlur stdDeviation="5"/>
            <feComposite in2="hardAlpha" operator="out"/>
            <feColorMatrix type="matrix" values="0 0 0 0 0 0 0 0 0 0 0 0 0 0 0 0 0 0 0.25 0"/>
            <feBlend mode="normal" in2="BackgroundImageFix" result="effect1_dropShadow_11_130"/>
            <feBlend mode="normal" in="SourceGraphic" in2="effect1_dropShadow_11_130" result="shape"/>
            <feColorMatrix in="SourceAlpha" type="matrix" values="0 0 0 0 0 0 0 0 0 0 0 0 0 0 0 0 0 0 127 0" result="hardAlpha"/>
            <feMorphology radius="5" operator="dilate" in="SourceAlpha" result="effect2_innerShadow_11_130"/>
            <feOffset dx="3" dy="3"/>
            <feGaussianBlur stdDeviation="5"/>
            <feComposite in2="hardAlpha" operator="arithmetic" k2="-1" k3="1"/>
            <feColorMatrix type="matrix" values="0 0 0 0 1 0 0 0 0 1 0 0 0 0 1 0 0 0 1 0"/>
            <feBlend mode="normal" in2="shape" result="effect2_innerShadow_11_130"/>
        </filter>
        <filter id="filter15_di_11_130" x="43.8788" y="368" width="135.576" height="100" filterUnits="userSpaceOnUse" color-interpolation-filters="sRGB">
            <feFlood flood-opacity="0" result="BackgroundImageFix"/>
            <feColorMatrix in="SourceAlpha" type="matrix" values="0 0 0 0 0 0 0 0 0 0 0 0 0 0 0 0 0 0 127 0" result="hardAlpha"/>
            <feMorphology radius="5" operator="erode" in="SourceAlpha" result="effect1_dropShadow_11_130"/>
            <feOffset dx="3" dy="3"/>
            <feGaussianBlur stdDeviation="5"/>
            <feComposite in2="hardAlpha" operator="out"/>
            <feColorMatrix type="matrix" values="0 0 0 0 0 0 0 0 0 0 0 0 0 0 0 0 0 0 0.25 0"/>
            <feBlend mode="normal" in2="BackgroundImageFix" result="effect1_dropShadow_11_130"/>
            <feBlend mode="normal" in="SourceGraphic" in2="effect1_dropShadow_11_130" result="shape"/>
            <feColorMatrix in="SourceAlpha" type="matrix" values="0 0 0 0 0 0 0 0 0 0 0 0 0 0 0 0 0 0 127 0" result="hardAlpha"/>
            <feMorphology radius="5" operator="dilate" in="SourceAlpha" result="effect2_innerShadow_11_130"/>
            <feOffset dx="3" dy="3"/>
            <feGaussianBlur stdDeviation="5"/>
            <feComposite in2="hardAlpha" operator="arithmetic" k2="-1" k3="1"/>
            <feColorMatrix type="matrix" values="0 0 0 0 1 0 0 0 0 1 0 0 0 0 1 0 0 0 1 0"/>
            <feBlend mode="normal" in2="shape" result="effect2_innerShadow_11_130"/>
        </filter>
        <filter id="filter16_di_11_130" x="43.8788" y="233" width="135.576" height="100" filterUnits="userSpaceOnUse" color-interpolation-filters="sRGB">
            <feFlood flood-opacity="0" result="BackgroundImageFix"/>
            <feColorMatrix in="SourceAlpha" type="matrix" values="0 0 0 0 0 0 0 0 0 0 0 0 0 0 0 0 0 0 127 0" result="hardAlpha"/>
            <feMorphology radius="5" operator="erode" in="SourceAlpha" result="effect1_dropShadow_11_130"/>
            <feOffset dx="3" dy="3"/>
            <feGaussianBlur stdDeviation="5"/>
            <feComposite in2="hardAlpha" operator="out"/>
            <feColorMatrix type="matrix" values="0 0 0 0 0 0 0 0 0 0 0 0 0 0 0 0 0 0 0.25 0"/>
            <feBlend mode="normal" in2="BackgroundImageFix" result="effect1_dropShadow_11_130"/>
            <feBlend mode="normal" in="SourceGraphic" in2="effect1_dropShadow_11_130" result="shape"/>
            <feColorMatrix in="SourceAlpha" type="matrix" values="0 0 0 0 0 0 0 0 0 0 0 0 0 0 0 0 0 0 127 0" result="hardAlpha"/>
            <feMorphology radius="5" operator="dilate" in="SourceAlpha" result="effect2_innerShadow_11_130"/>
            <feOffset dx="3" dy="3"/>
            <feGaussianBlur stdDeviation="5"/>
            <feComposite in2="hardAlpha" operator="arithmetic" k2="-1" k3="1"/>
            <feColorMatrix type="matrix" values="0 0 0 0 1 0 0 0 0 1 0 0 0 0 1 0 0 0 1 0"/>
            <feBlend mode="normal" in2="shape" result="effect2_innerShadow_11_130"/>
        </filter>
        <filter id="filter17_di_11_130" x="43.8788" y="98" width="135.576" height="100" filterUnits="userSpaceOnUse" color-interpolation-filters="sRGB">
            <feFlood flood-opacity="0" result="BackgroundImageFix"/>
            <feColorMatrix in="SourceAlpha" type="matrix" values="0 0 0 0 0 0 0 0 0 0 0 0 0 0 0 0 0 0 127 0" result="hardAlpha"/>
            <feMorphology radius="5" operator="erode" in="SourceAlpha" result="effect1_dropShadow_11_130"/>
            <feOffset dx="3" dy="3"/>
            <feGaussianBlur stdDeviation="5"/>
            <feComposite in2="hardAlpha" operator="out"/>
            <feColorMatrix type="matrix" values="0 0 0 0 0 0 0 0 0 0 0 0 0 0 0 0 0 0 0.25 0"/>
            <feBlend mode="normal" in2="BackgroundImageFix" result="effect1_dropShadow_11_130"/>
            <feBlend mode="normal" in="SourceGraphic" in2="effect1_dropShadow_11_130" result="shape"/>
            <feColorMatrix in="SourceAlpha" type="matrix" values="0 0 0 0 0 0 0 0 0 0 0 0 0 0 0 0 0 0 127 0" result="hardAlpha"/>
            <feMorphology radius="5" operator="dilate" in="SourceAlpha" result="effect2_innerShadow_11_130"/>
            <feOffset dx="3" dy="3"/>
            <feGaussianBlur stdDeviation="5"/>
            <feComposite in2="hardAlpha" operator="arithmetic" k2="-1" k3="1"/>
            <feColorMatrix type="matrix" values="0 0 0 0 1 0 0 0 0 1 0 0 0 0 1 0 0 0 1 0"/>
            <feBlend mode="normal" in2="shape" result="effect2_innerShadow_11_130"/>
        </filter>
    </defs>
</svg>
