<?xml version="1.0" encoding="UTF-8"?>
<svg width="145px" height="10px" viewBox="0 0 145 10" version="1.1" xmlns="http://www.w3.org/2000/svg"
    xmlns:xlink="http://www.w3.org/1999/xlink">
    <title>step_01</title>
    <g id="slides" stroke="none" stroke-width="1" fill="none" fill-rule="evenodd">
        <g id="Animated SVG with CSS" transform="translate(-168.000000, -179.000000)" fill="#979797"
            fill-rule="nonzero">
            <g transform="translate(80.000000, 80.000000)" id="step_01">
                <g transform="translate(88.000000, 103.500000)">
                    <path id="Path-46"
                        d="M136.03686,-4 C136.120205,-4 136.202405,-3.98059515 136.276951,-3.9433222 L144.203114,0.0197591315 C144.468311,0.152357748 144.575803,0.474834999 144.443205,0.740032232 C144.391256,0.843929329 144.307011,0.928174718 144.203114,0.980123266 L136.276951,4.94320459 C136.011754,5.07580321 135.689276,4.96831079 135.556678,4.70311356 C135.519405,4.62856765 135.5,4.54636739 135.5,4.46302253 L135.5,1 L0,1 L0,0 L135.5,0 L135.5,-3.46314013 C135.5,-3.7299897 135.694692,-3.95136654 135.949778,-3.99297341 Z">
                    </path>
                </g>
            </g>
        </g>
    </g>
</svg>