<?xml version="1.0" encoding="UTF-8"?>
<svg width="354px" height="401px" viewBox="0 0 354 401" version="1.1" xmlns="http://www.w3.org/2000/svg" xmlns:xlink="http://www.w3.org/1999/xlink">
    <title>GC</title>
    <defs>
        <polygon id="path-1" points="0 0 0 401 354 401 354 0.644091091"></polygon>
    </defs>
    <g id="logo" stroke="none" stroke-width="1" fill="none" fill-rule="evenodd">
        <g id="Small" transform="translate(-80.000000, -39.000000)">
            <g id="GC" transform="translate(80.000000, 39.000000)">
                <mask id="mask-2" fill="white">
                    <use xlink:href="#path-1"></use>
                </mask>
                <g id="Mask"></g>
                <g id="C" mask="url(#mask-2)">
                    <g transform="translate(190.000000, 65.000000)">
                        <circle id="Oval" fill="none" cx="96" cy="96" r="96"></circle>
                        <path d="M96,48 C95.7902073,48 95.5794376,48.0015939 95.3677355,48.0047888 L96,48 C88.7937624,48 81.9584232,49.5880044 75.8248334,52.433162 C61.1889277,58.9221186 48,72.8234686 48,96 C48,116.93761 58.9302009,130.305501 71.8259532,137.477552 C78.7660997,141.531006 86.8158044,143.892733 95.4088808,143.996435 L95.4194729,143.99578 L96,144 C96.2611481,144 96.5216613,143.998058 96.7815397,143.994174 L96,144 C96.2734752,144 96.5464163,143.997713 96.8188051,143.993157 C103.499807,143.888978 109.761168,142.500171 115.602696,139.827184 C120.977174,137.420271 125.827858,134.053439 129.937162,129.945089 L163.87398,163.890521 C145.263983,182.630181 122.639323,192.00001 96,192.00001 C42.9806685,192.00001 0,149.019336 0,96 C0,42.980664 42.980664,0 96,0 C122.714193,0 145.370565,9.40157517 163.969117,28.2047255 L130.039943,62.0471196 C120.476531,52.6823732 109.129883,48 96,48 Z" id="Combined-Shape" fill="#FFFFFF" fill-rule="evenodd"></path>
                    </g>
                </g>
                <g id="G" mask="url(#mask-2)" fill="#FFFFFF">
                    <g transform="translate(-18.183020, 1.642485)" id="Combined-Shape">
                        <path d="M140.18302,266.357515 C139.973227,266.357515 139.762457,266.359109 139.550755,266.362304 L140.18302,266.357515 C132.976782,266.357515 126.141443,267.94552 120.007853,270.790677 C105.371947,277.279634 92.1830195,291.180984 92.1830195,314.357515 C92.1830195,335.295125 103.11322,348.663016 116.008973,355.835067 C122.949119,359.888521 130.998824,362.250249 139.5919,362.35395 L139.602492,362.353295 L140.18302,362.357515 C140.444168,362.357515 140.704681,362.355573 140.964559,362.351689 L140.18302,362.357515 C140.456495,362.357515 140.729436,362.355228 141.001825,362.350672 C147.682826,362.246494 153.944187,360.857686 159.785716,358.184699 C165.160194,355.777786 170.010877,352.410955 174.120181,348.302604 L204.454281,378.64444 C204.506259,378.696944 204.557289,378.750382 204.607116,378.804932 C206.469497,380.843804 206.326422,384.006394 204.285912,385.86698 C186.416078,402.19401 165.048447,410.357525 140.18302,410.357525 C87.163688,410.357525 44.1830195,367.376851 44.1830195,314.357515 C44.1830195,261.338179 87.1636836,218.357515 140.18302,218.357515 C166.897212,218.357515 189.553585,227.75909 208.152136,246.562241 L174.222963,280.404635 C164.65955,271.039888 153.312902,266.357515 140.18302,266.357515 Z" transform="translate(125.097269, 314.357520) rotate(-135.000000) translate(-125.097269, -314.357520) "></path>
                        <path d="M138.154341,-1.60016445 L182.004523,17.9231944 L157.245601,73.5342878 C188.640928,89.3180353 210.18302,121.822063 210.18302,159.357515 C210.18302,212.376851 167.202356,255.357515 114.18302,255.357515 C61.1636836,255.357515 18.1830195,212.376851 18.1830195,159.357515 C18.1830195,108.01797 58.4833486,66.0910702 109.174926,63.4858978 L138.154341,-1.60016445 Z M114.18302,111.357515 C87.6733516,111.357515 66.1830195,132.847847 66.1830195,159.357515 C66.1830195,185.867183 87.6733516,207.357515 114.18302,207.357515 C140.692688,207.357515 162.18302,185.867183 162.18302,159.357515 C162.18302,132.847847 140.692688,111.357515 114.18302,111.357515 Z"></path>
                    </g>
                </g>
            </g>
        </g>
    </g>
</svg>