<?xml version="1.0" encoding="UTF-8"?>
<svg width="40px" height="48px" viewBox="0 0 40 48" version="1.1" xmlns="http://www.w3.org/2000/svg" xmlns:xlink="http://www.w3.org/1999/xlink">
    <title>Group</title>
    <g id="Page-1" stroke="none" stroke-width="1" fill="none" fill-rule="evenodd">
        <g id="Cribl" transform="translate(0.073000, 0.000511)" fill="#00CCCC" fill-rule="nonzero">
            <g id="Group">
                <g id="Cribl.LOCKUP_4_">
                    <path d="M17.947,10.1414888 C18.221,10.2994888 18.203,10.5184888 17.906,10.6284888 L0.542,17.0614888 C0.357,17.1534888 0.133,17.0784888 0.041,16.8934888 C0.009,16.8294888 -0.004,16.7584888 0.004,16.6874888 L0.004,0.354488807 C0.004,0.0384888073 0.228,-0.0905111927 0.502,0.0674888073 L17.947,10.1414888 Z M22.078,12.5244888 C21.757,12.3624888 21.386,12.3304888 21.042,12.4364888 L0.539,20.0324888 C0.226,20.1664888 0.017,20.4664888 -7.10542736e-15,20.8064888 L-7.10542736e-15,22.0314888 C0.001,22.3484888 0.258,22.6044888 0.574,22.6054888 L38.958,22.6054888 C39.274,22.6054888 39.309,22.4764888 39.035,22.3204888 L22.078,12.5244888 Z" id="Cribl.Mark.BLK_3_"></path>
                </g>
                <g transform="translate(0.000700, 25.392489)" id="Path">
                    <path d="M0.500299727,22.54 C0.226299727,22.698 0.00229972722,22.568 0.00229972722,22.253 L0.00229972722,5.92 C-0.00570027278,5.849 0.00729972722,5.777 0.0392997272,5.714 C0.131299727,5.529 0.356299727,5.454 0.540299727,5.546 L17.9042997,11.979 C18.2012997,12.089 18.2192997,12.307 17.9452997,12.466 L0.500299727,22.54 Z"></path>
                    <path d="M39.0342997,0.285 C39.3082997,0.13 39.2732997,0 38.9572997,0 L0.574299727,0 C0.257299727,0.001 0.00129972722,0.258 0.000299727219,0.574 L0.000299727219,1.799 C0.0172997272,2.139 0.226299727,2.439 0.539299727,2.573 L21.0422997,10.169 C21.3862997,10.275 21.7572997,10.243 22.0782997,10.081 L39.0342997,0.285 Z"></path>
                </g>
            </g>
        </g>
    </g>
</svg>