<?xml version="1.0" encoding="UTF-8"?>
<svg width="103px" height="117px" viewBox="0 0 103 117" version="1.1" xmlns="http://www.w3.org/2000/svg" xmlns:xlink="http://www.w3.org/1999/xlink">
    <title>css3_logo</title>
    <g id="Page-1" stroke="none" stroke-width="1" fill="none" fill-rule="evenodd">
        <g id="css3_logo" transform="translate(0.000000, 0.397200)" fill-rule="nonzero">
            <polygon id="polygon2989" fill="#264DE4" points="102.371597 3.55271368e-15 93.0452815 104.478386 51.1231453 116.10058 9.31643793 104.494755 0 3.55271368e-15"></polygon>
            <polygon id="polygon2991" fill="#2965F1" points="85.0609325 97.8255616 93.0308881 8.54399569 51.1857986 8.54399569 51.1857986 107.217071"></polygon>
            <polygon id="polygon2993" fill="#EBEBEB" points="21.3577314 47.2995985 22.5063759 60.1153098 51.1857986 60.1153098 51.1857986 47.2995985"></polygon>
            <polygon id="polygon2995" fill="#EBEBEB" points="51.1857986 21.3599892 51.1414897 21.3599892 19.0497181 21.3599892 20.2147314 34.1759828 51.1857986 34.1759828"></polygon>
            <polygon id="polygon2997" fill="#EBEBEB" points="51.1857986 93.9176304 51.1857986 80.5837591 51.1296364 80.5987168 36.8565295 76.7446901 35.944105 66.5234477 29.0084938 66.5234477 23.0790048 66.5234477 24.8745026 86.6461747 51.1268141 93.9339993"></polygon>
            <polygon id="polygon3005" fill="#FFFFFF" points="66.9227922 60.1153098 65.4351988 76.7365057 51.1414897 80.5944835 51.1414897 93.9277904 77.4146857 86.6461747 77.6074435 84.4809658 80.6190368 50.7410164 80.9317391 47.2995985 83.2453969 21.3599892 51.1414897 21.3599892 51.1414897 34.1759828 69.2003255 34.1759828 68.0341833 47.2995985 51.1414897 47.2995985 51.1414897 60.1153098"></polygon>
        </g>
    </g>
</svg>