<?xml version="1.0" encoding="UTF-8"?>
<svg width="542px" height="276px" viewBox="0 0 542 276" version="1.1" xmlns="http://www.w3.org/2000/svg" xmlns:xlink="http://www.w3.org/1999/xlink">
    <title>Group 2</title>
    <g id="Page-1" stroke="none" stroke-width="1" fill="none" fill-rule="evenodd">
        <g id="Group-2" transform="translate(0.622200, 0.354351)" fill="#222222" fill-rule="nonzero">
            <path d="M362.42487,0.913118524 C366.73737,3.06151852 368.48737,8.29201852 366.34677,12.5971185 L364.76087,15.7807185 C377.61287,10.9448185 391.73387,8.08541852 407.20987,8.08541852 C476.85787,8.08541852 533.32987,64.5504185 533.32987,134.205419 C533.32987,143.353819 532.35721,152.275419 530.50177,160.869419 L540.18927,186.232419 C541.90407,190.728519 539.64239,195.763619 535.15017,197.474419 C530.65407,199.189219 525.61897,196.927539 523.90817,192.435319 L521.80657,186.939219 C501.23257,231.568219 456.60757,260.322219 407.20657,260.322219 C365.79657,260.322219 334.03457,239.924219 310.57757,215.603219 L284.14757,210.958719 C279.40537,210.130599 276.23347,205.614919 277.06167,200.872719 C277.88979,196.130519 282.40547,192.958619 287.14767,193.786819 L292.94067,194.802419 C281.496597,179.584237 272.936714,164.591623 266.987498,153.459855 L266.666,152.857 L266.109587,153.900346 C247.435707,188.750125 203.70014,260.335649 126.1178,260.335649 C114.9808,260.335649 104.1838,258.890349 93.8988,256.183349 L97.2465,262.507549 C99.4848,266.761449 97.85197,272.023149 93.602,274.261549 C89.3481,276.499849 84.0864,274.867019 81.848,270.617049 L69.254,246.824049 C26.859,225.371049 0,181.976049 0,134.214049 C0,103.941049 10.676,76.1480485 28.453,54.4130485 L22.9296,54.9560185 C18.1523,55.4286785 13.8944,51.9326185 13.4218,47.1513185 C12.95305,42.3740185 16.4491,38.1161185 21.2265,37.6474185 L48.2575,34.9872185 C69.6955,18.1392185 96.7345,8.09621852 126.1165,8.09621852 C182.8935,8.09621852 221.5425,46.4442185 245.5065,80.6742185 L246.29947,74.7289185 C246.91666,69.9672185 251.27997,66.6156185 256.04167,67.2328185 C260.80337,67.8500085 264.15497,72.2133185 263.53777,76.9750185 L259.99087,103.530019 C262.50647,107.889419 264.72137,111.948019 266.65887,115.581019 C278.73287,92.9170185 301.84687,53.5380185 338.57287,29.2610185 L350.74087,4.83501852 C352.88927,0.522518524 358.11977,-1.22748148 362.42487,0.913118524 Z M407.22463,25.5404485 C392.65463,25.5443545 379.38863,28.5795485 367.35363,33.6420485 L376.264,36.6368485 C380.8187,38.1602485 383.2757,43.0899485 381.7484,47.6448485 C380.225,52.1995485 375.2953,54.6565485 370.7404,53.1292485 L346.6154,45.0198485 C314.0414,67.2698485 294.5064,100.195849 276.5764,134.222849 C286.0022,152.027849 294.8534,168.343849 307.1154,184.570849 L307.37321,177.465349 C307.54118,172.664549 311.56851,168.914549 316.36931,169.082549 C321.17011,169.250519 324.92011,173.277849 324.75211,178.078649 L323.82633,204.090649 C344.65833,225.410649 372.21333,242.895649 407.22133,242.895649 C449.62333,242.895649 487.96733,218.301649 505.78733,180.059649 L499.51783,183.508849 C495.29903,185.825249 490.01003,184.286189 487.69383,180.067449 C485.37763,175.848709 486.91649,170.559649 491.13523,168.243449 L513.75623,155.802449 C515.16243,148.825849 515.90463,141.611449 515.90463,134.220449 C515.90463,74.2004485 467.24863,25.5404485 407.22463,25.5404485 Z M126.1196,25.5387485 C101.3576,25.5387485 78.5296,33.8239485 60.2606,47.7657485 L59.2294,73.5037485 C59.0419,78.3045485 54.9989,82.0389485 50.1982,81.8514485 C45.3974,81.6639485 41.663,77.6209485 41.8505,72.8202485 L42.15519,65.2186485 C26.71419,83.9846485 17.44419,108.019649 17.44419,134.222649 C17.452002,174.988649 40.17819,212.093649 76.19019,230.761649 L100.6608,221.874049 C105.1764,220.233449 110.1647,222.569359 111.8018,227.088849 C113.4424,231.604449 111.10649,236.592749 106.587,238.229849 L101.4698,240.089249 C109.3917,241.925149 117.6458,242.893949 126.1218,242.893949 C191.6298,242.893949 229.5718,185.553949 256.7518,134.213949 C252.9588,127.022549 249.2674,119.858949 245.2008,112.799949 L219.9548,105.796049 C215.3298,104.518749 212.611,99.7296485 213.8884,95.0970485 C215.1657,90.4720485 219.9548,87.7532485 224.5874,89.0306485 L231.3296,90.9017485 C209.5366,59.8037485 175.1266,25.5387485 126.1196,25.5387485 Z" id="Combined-Shape"></path>
            <path d="M139.7535,60.6176485 L144.4488,72.8086485 C150.9518,74.3555485 157.1593,76.9297485 162.8468,80.4336485 L174.7918,75.1250485 L188.8778,89.2110485 L183.5692,101.164049 C187.0692,106.852049 189.6473,113.055049 191.1942,119.555049 L203.3932,124.250349 L203.3932,144.172349 L191.2022,148.867649 C189.6553,155.370649 187.0811,161.578149 183.5772,167.265649 L188.8858,179.210649 L174.7998,193.296649 L162.8468,187.988049 C157.1588,191.488049 150.9558,194.066149 144.4558,195.613049 L139.7605,207.812049 L119.8385,207.812049 L115.1432,195.621049 C108.6402,194.074149 102.4327,191.499949 96.7452,187.996049 L84.8002,193.304649 L70.7142,179.218649 L76.0228,167.265649 C72.5228,161.577649 69.9447,155.374649 68.3978,148.874649 L56.1988,144.172349 L56.1988,124.250349 L68.3978,119.555049 C69.9447,113.059049 72.5228,106.851549 76.0228,101.164049 L70.7142,89.2110485 L84.8002,75.1250485 L96.7452,80.4336485 C102.4332,76.9336485 108.6362,74.3555485 115.1362,72.8086485 L119.8315,60.6176485 L139.7535,60.6176485 Z M129.7918,98.7346485 C110.1938,98.7385545 94.3038,114.621649 94.3038,134.222649 C94.3038,153.824649 110.1868,169.706649 129.7918,169.706649 C149.3938,169.706649 165.2758,153.823649 165.2758,134.222649 C165.2758,114.620649 149.3928,98.7346485 129.7918,98.7346485 Z" id="Combined-Shape"></path>
            <path d="M393.5831,60.6293415 L413.4971,60.6332485 L418.1924,72.8242485 C424.6954,74.3711485 430.9029,76.9453485 436.5904,80.4492485 L448.5354,75.1406485 L462.6214,89.2266485 L457.3128,101.179649 C460.8128,106.867649 463.3909,113.070649 464.9378,119.570649 L477.1448,124.261042 L477.1448,144.183042 L464.9458,148.878342 C463.3989,155.374342 460.8208,161.581842 457.3208,167.269342 L462.6294,179.222342 L448.5434,193.308342 L436.5984,187.999742 C430.9104,191.499742 424.7074,194.077842 418.2074,195.624742 L413.5121,207.823742 L393.5901,207.823742 L388.8948,195.632742 C382.3918,194.085842 376.1843,191.511642 370.4968,188.007742 L358.5518,193.316342 L344.4658,179.230342 L349.7744,167.277342 C346.2744,161.589342 343.6963,155.386342 342.1494,148.886342 L329.9504,144.191042 L329.9504,124.269042 L342.1414,119.573742 C343.6883,113.070742 346.2625,106.863242 349.7664,101.175742 L344.4578,89.2307415 L358.5438,75.1447415 L370.4968,80.4533415 C376.1848,76.9533415 382.3878,74.3752415 388.8878,72.8283415 L393.5831,60.6293415 Z M403.5358,98.7386485 C383.9338,98.7386485 368.0518,114.621649 368.0518,134.222649 C368.0518,153.824649 383.9348,169.710649 403.5358,169.710649 C423.1408,169.710649 439.0238,153.823649 439.0238,134.222649 C439.0238,114.620649 423.1408,98.7386485 403.5358,98.7386485 Z" id="Combined-Shape"></path>
        </g>
    </g>
</svg>