<?xml version="1.0" encoding="UTF-8"?>
<svg width="411px" height="445px" viewBox="0 0 411 445" version="1.1" xmlns="http://www.w3.org/2000/svg" xmlns:xlink="http://www.w3.org/1999/xlink">
    <title>undraw_happy_music_g6wc</title>
    <g id="Page-1" stroke="none" stroke-width="1" fill="none" fill-rule="evenodd">
        <g id="undraw_happy_music_g6wc" transform="translate(0.360000, 0.475000)" fill-rule="nonzero">
            <g id="legs" transform="translate(140.640000, 335.525000)" fill="#3F3D56">
                <polygon id="Vector_17" points="132.061 109 115.621 93.432 116.004 109 110.898 109 110.49 92.539 88.292 109 79 109 110.324 85.771 109.111 36.995 108.204 0.158 113.298 0 114.217 36.995 115.429 85.728 140 109"></polygon>
                <polygon id="Vector_18" points="53.928 109 37.215 93.432 37.605 109 32.428 109 32.012 92.539 9.447 109 0 109 31.831 85.771 30.598 36.995 29.677 0.158 34.867 0 35.801 36.995 37.021 85.728 62 109"></polygon>
            </g>
            <g id="head" transform="translate(0.000000, 0.000000)">
                <path d="M204.917,364.235 C296.722,364.235 371.145,289.812 371.145,198.007 C371.145,106.202 296.722,31.779 204.917,31.779 C113.112,31.779 38.689,106.202 38.689,198.007 C38.689,289.812 113.112,364.235 204.917,364.235 Z" id="Vector_19" fill="#3F3D56"></path>
                <path d="M100.266,211.351 C104.394,206.408 109.558,202.433 115.391,199.704 C121.224,196.976 127.586,195.562 134.025,195.562 C140.465,195.562 146.827,196.976 152.66,199.704 C158.493,202.433 163.657,206.408 167.785,211.351 C174.849,204.607 179.732,195.902 181.803,186.358 C183.875,176.814 183.041,166.868 179.409,157.803 C175.776,148.737 169.512,140.967 161.423,135.494 C153.334,130.021 143.792,127.096 134.025,127.096 C124.259,127.096 114.717,130.021 106.628,135.494 C98.539,140.967 92.275,148.737 88.642,157.803 C85.01,166.868 84.176,176.814 86.247,186.358 C88.319,195.902 93.202,204.607 100.266,211.351 L100.266,211.351 Z" id="Vector_20" fill="#FFFFFF"></path>
                <path d="M232.271,211.351 C236.399,206.408 241.562,202.433 247.396,199.704 C253.229,196.976 259.59,195.562 266.03,195.562 C272.47,195.562 278.831,196.976 284.665,199.704 C290.498,202.433 295.661,206.408 299.79,211.351 C306.854,204.607 311.736,195.902 313.808,186.358 C315.88,176.814 315.046,166.868 311.413,157.803 C307.781,148.737 301.517,140.967 293.428,135.494 C285.339,130.021 275.797,127.096 266.03,127.096 C256.264,127.096 246.721,130.021 238.633,135.494 C230.544,140.967 224.28,148.737 220.647,157.803 C217.015,166.868 216.181,176.814 218.252,186.358 C220.324,195.902 225.207,204.607 232.271,211.351 Z" id="Vector_21" fill="#FFFFFF"></path>
                <g id="eye_balls" transform="translate(100.529000, 142.521000)" fill="#3F3D56">
                    <path d="M16.818,33.636 C26.107,33.636 33.636,26.106 33.636,16.818 C33.636,7.53 26.107,0 16.818,0 C7.53,0 0,7.53 0,16.818 C0,26.106 7.53,33.636 16.818,33.636 Z" id="Vector_22"></path>
                    <path d="M148.818,33.636 C158.107,33.636 165.636,26.106 165.636,16.818 C165.636,7.53 158.107,0 148.818,0 C139.53,0 132,7.53 132,16.818 C132,26.106 139.53,33.636 148.818,33.636 Z" id="Vector_23"></path>
                </g>
                <path d="M85.135,259.12 C95.935,259.12 104.691,250.365 104.691,239.564 C104.691,228.763 95.935,220.008 85.135,220.008 C74.334,220.008 65.579,228.763 65.579,239.564 C65.579,250.365 74.334,259.12 85.135,259.12 Z" id="Vector_24" fill="#FF6584"></path>
                <path d="M310.032,259.12 C320.832,259.12 329.588,250.365 329.588,239.564 C329.588,228.763 320.832,220.008 310.032,220.008 C299.231,220.008 290.476,228.763 290.476,239.564 C290.476,250.365 299.231,259.12 310.032,259.12 Z" id="Vector_25" fill="#FF6584"></path>
                <polygon id="Vector_26" fill="#FF6584" points="197.583 200.451 182.916 264.009 207.361 239.564"></polygon>
                <path d="M207.361,19.556 C202.8,19.556 198.777,23.099 196.087,28.541 C193.715,20.358 188.734,14.667 182.916,14.667 C182.521,14.706 182.128,14.772 181.742,14.864 C179.506,6.127 174.308,0 168.249,0 C160.148,0 153.582,10.944 153.582,24.445 C153.582,37.946 160.148,48.89 168.249,48.89 C168.644,48.851 169.037,48.785 169.423,48.693 C171.659,57.43 176.857,63.558 182.916,63.558 C187.477,63.558 191.501,60.015 194.191,54.573 C196.562,62.756 201.544,68.447 207.361,68.447 C215.462,68.447 222.029,57.502 222.029,44.001 C222.029,30.501 215.462,19.556 207.361,19.556 Z" id="Vector_27" fill="#3F3D56"></path>
                <g id="ear_muffs" transform="translate(0.000000, 138.773000)" fill="#6C63FF">
                    <path d="M48.89,122.227 C42.47,122.227 36.112,120.962 30.181,118.506 C24.249,116.049 18.859,112.447 14.319,107.907 C9.78,103.367 6.178,97.978 3.721,92.046 C1.264,86.114 0,79.757 0,73.336 L0,48.891 C0,35.924 5.151,23.489 14.319,14.32 C23.488,5.151 35.924,5.68434189e-14 48.89,5.68434189e-14 L48.89,5.68434189e-14 L48.89,122.227 Z" id="ear_muff"></path>
                    <path d="M360.943,5.68434189e-14 C367.364,5.68434189e-14 373.721,1.265 379.653,3.722 C385.585,6.179 390.974,9.78 395.514,14.32 C400.054,18.86 403.656,24.25 406.113,30.181 C408.57,36.113 409.834,42.471 409.834,48.891 L409.834,73.336 C409.834,79.757 408.57,86.114 406.113,92.046 C403.656,97.978 400.054,103.367 395.514,107.907 C390.974,112.447 385.585,116.048 379.653,118.505 C373.721,120.962 367.364,122.227 360.944,122.227 L360.944,122.227 L360.944,5.68434189e-14 L360.943,5.68434189e-14 Z" id="ear_muff"></path>
                </g>
            </g>
            <g id="ear_phone_handle" transform="translate(13.640000, 4.525000)" fill="#6C63FF">
                <path d="M372.342,186.171 L364.585,186.171 C364.585,87.793 284.549,7.757 186.171,7.757 C87.793,7.757 7.757,87.793 7.757,186.171 L0,186.171 C0,83.516 83.516,0 186.171,0 C288.826,0 372.342,83.516 372.342,186.171 Z" id="Vector_28"></path>
            </g>
        </g>
    </g>
</svg>